<svg xmlns="http://www.w3.org/2000/svg" width="16.263" height="20" viewBox="0 0 16.263 20">
  <path id="ic_apple" d="M17.79-27.8a4.527,4.527,0,0,0,1.057-2.8A2.316,2.316,0,0,0,18.815-31a4.438,4.438,0,0,0-2.936,1.527,4.3,4.3,0,0,0-1.1,2.7,1.27,1.27,0,0,0,.043.363,1.681,1.681,0,0,0,.267.021A3.887,3.887,0,0,0,17.79-27.8Zm.715,1.634c-1.506,0-2.734.918-3.524.918-.833,0-1.933-.865-3.246-.865-2.488,0-5.019,2.061-5.019,5.937A12.218,12.218,0,0,0,8.81-13.546C9.8-12.158,10.668-11,11.917-11s1.783-.822,3.31-.822c1.559,0,1.911.8,3.278.8s2.253-1.239,3.107-2.467a10.775,10.775,0,0,0,1.367-2.84,4.408,4.408,0,0,1-2.67-4.047,4.5,4.5,0,0,1,2.157-3.8A4.712,4.712,0,0,0,18.505-26.168Z" transform="translate(-6.717 31.005)" fill="#fff"/>
</svg>
