<svg height="291.532" width="326.21" xmlns="http://www.w3.org/2000/svg"><path d="m317.093 181.021c-6.967 26.014-23.512 55.033-49.684 65.663-39.545 16.066-41.266 49.371-114.471 53.316a147.652 147.652 0 0 1 -31.971-1.606 122.836 122.836 0 0 1 -15.3-3.514c-44.248-13.183-70.1-49.055-75.753-88.639-7.439-52.061 26.636-80.481 48.936-97.347s45.447-76.155 117.382-80.6a143.1 143.1 0 0 1 32.868 1.633c24.752 4.222 50.661 16.325 66.934 36.089q1.833 2.227 3.534 4.573c22.167 30.556 27.025 74.966 17.525 110.432z" fill="#92e3a9" transform="translate(-28.875 -28)"/><path d="m317.093 181.021c-6.967 26.014-23.512 55.033-49.684 65.663-39.545 16.066-41.266 49.371-114.471 53.316a147.652 147.652 0 0 1 -31.971-1.606 122.836 122.836 0 0 1 -15.3-3.514c-44.248-13.183-70.1-49.055-75.753-88.639-7.439-52.061 26.636-80.481 48.936-97.347s45.447-76.155 117.382-80.6a143.1 143.1 0 0 1 32.868 1.633c24.752 4.222 50.661 16.325 66.934 36.089q1.833 2.227 3.534 4.573c22.167 30.556 27.025 74.966 17.525 110.432z" fill="#dfe9f8" transform="translate(-28.875 -28)"/><g transform="translate(131.409 24.682)"><path d="m429.806 66.6-17.259-3.293-.03.059c-.861 1.742-2.266 2.711-3.568 2.462l-.749-.142c-1.3-.249-2.251-1.667-2.41-3.6l-.005-.066-17.259-3.294a8.861 8.861 0 0 0 -10.365 7.043l-22.388 113.589a5.085 5.085 0 0 0 4.042 5.947l48.7 9.293a5.083 5.083 0 0 0 5.947-4.041l22.387-113.59a8.861 8.861 0 0 0 -7.043-10.367z" fill="#a4bde8" stroke="#263238" stroke-linecap="round" stroke-linejoin="round" transform="translate(-352.633 -56.054)"/><path d="m443.553 79.5.484-2.536a8.861 8.861 0 0 0 -7.043-10.364l-17.259-3.293-.03.059c-.861 1.742-2.266 2.711-3.568 2.462l-.749-.142c-1.3-.249-2.251-1.667-2.41-3.6l-.005-.066-17.259-3.294a8.861 8.861 0 0 0 -10.365 7.043l-.484 2.536z" fill="#fff" stroke="#263238" stroke-linecap="round" stroke-linejoin="round" transform="translate(-359.82 -56.054)"/><g stroke="#263238" stroke-linecap="round" stroke-linejoin="round"><path d="m431.586 115.056 2.105-11.029-1-.191 6.275-29.157a8.861 8.861 0 0 0 -7.043-10.365l-46.752-8.922a8.861 8.861 0 0 0 -10.365 7.043l-23.011 116.874a8.861 8.861 0 0 0 7.043 10.364l46.752 8.922a8.86 8.86 0 0 0 10.365-7.043l12.841-67.286 1 .19 1.244-6.517-1-.191.55-2.882zm-17.181 69.757a8.861 8.861 0 0 1 -10.364 7.043l-41.281-7.878a8.861 8.861 0 0 1 -7.043-10.364l21.447-108.667a8.861 8.861 0 0 1 10.365-7.047l17.259 3.3.005.066c.16 1.936 1.108 3.355 2.41 3.6l.749.142c1.3.249 2.707-.72 3.568-2.462l.03-.059 17.259 3.293a8.861 8.861 0 0 1 7.043 10.365z" fill="#707070" transform="translate(-351.636 -55.233)"/><path d="m430.6 65.706-43.7-8.34a9.388 9.388 0 0 0 -10.981 7.462l-22.356 113.441a9.388 9.388 0 0 0 7.462 10.981l43.7 8.34a9.387 9.387 0 0 0 10.981-7.462l22.36-113.441a9.388 9.388 0 0 0 -7.466-10.981zm-15.762 119.594a8.86 8.86 0 0 1 -10.364 7.043l-41.282-7.878a8.861 8.861 0 0 1 -7.042-10.365l21.45-108.669a8.861 8.861 0 0 1 10.365-7.043l17.259 3.294v.066c.16 1.936 1.108 3.355 2.411 3.6l.749.142c1.3.249 2.706-.721 3.568-2.462l.03-.059 17.259 3.293a8.861 8.861 0 0 1 7.043 10.365z" fill="#263238" transform="translate(-352.07 -55.717)"/></g><path d="m426.845 64.394a.832.832 0 1 0 -.973.662.833.833 0 0 0 .973-.662z" fill="#707070" transform="translate(-369.753 -57.246)"/><g fill="#263238"><path d="m393.2 62.331c-.157.827-1.143.947-1.267 1.578l-.008.043.9.172-.053.278-1.2-.229.045-.235c.169-.886 1.131-.88 1.278-1.653.053-.282-.012-.448-.239-.491s-.352.1-.4.341l-.046.243-.286-.055.042-.223c.08-.419.325-.661.748-.58s.564.392.486.811z" transform="translate(-361.471 -56.778)"/><path d="m395.226 62.707-.014.071a.556.556 0 0 1 -.441.5.555.555 0 0 1 .224.632l-.041.212c-.08.419-.328.656-.75.575s-.563-.392-.483-.811l.036-.188.286.054-.043.208c-.047.247.026.415.246.458s.349-.084.4-.362l.041-.212c.051-.271-.038-.421-.267-.473l-.165-.031.053-.274.18.034a.335.335 0 0 0 .4-.313l.023-.126c.054-.282-.017-.445-.24-.488s-.35.091-.4.338l-.027.141-.286-.054.023-.125c.081-.419.328-.653.747-.573a.6.6 0 0 1 .498.807z" transform="translate(-361.996 -56.872)"/><path d="m396.244 63.383-.073.38-.294-.057.073-.38zm-.285 1.492-.073.38-.293-.056.072-.381z" transform="translate(-362.462 -57.227)"/><path d="m397.045 63.507a.449.449 0 0 1 .451-.149c.353.067.46.355.385.747l-.1.537c-.081.42-.332.656-.751.576s-.563-.392-.482-.811l.035-.184.286.054-.038.2c-.047.247.026.415.246.458s.35-.088.4-.335l.1-.533c.047-.246-.026-.415-.246-.457a.3.3 0 0 0 -.366.234l-.012.062-.286-.054.366-1.51 1.081.206-.052.274-.807-.154z" transform="translate(-362.692 -56.986)"/><path d="m400.067 63.628-.009.051-.286-.054.013-.071c.048-.246-.027-.411-.25-.454s-.362.085-.417.379l-.118.615a.451.451 0 0 1 .5-.21c.353.068.46.352.385.748l-.079.415a.643.643 0 1 1 -1.258-.24l.267-1.4c.083-.435.331-.668.766-.585a.6.6 0 0 1 .486.806zm-1.14.846-.078.411c-.048.247.026.415.249.458s.353-.087.4-.334l.079-.411c.047-.247-.03-.416-.25-.458s-.353.087-.4.334z" transform="translate(-363.185 -57.099)"/><path d="m0 0h.788v1.971h-.788z" transform="matrix(.98226435 .18750132 -.18750132 .98226435 66.024933 12.215072)"/><path d="m0 0h.788v2.366h-.788z" transform="matrix(.98228071 .1874156 -.1874156 .98228071 67.13104 12.024033)"/><path d="m0 0h.788v2.646h-.788z" transform="matrix(.98228071 .1874156 -.1874156 .98228071 68.216061 11.945846)"/><path d="m0 0h.788v3.134h-.788z" transform="matrix(.982 .187 -.187 .982 69.34 11.664)"/><path d="m455.091 76.127-4.646-.886.542-2.839 4.645.886zm-4.338-1.1 4.129.788.443-2.323-4.13-.788z" transform="translate(-375.972 -59.462)"/><path d="m0 0h2.496v1.793h-2.496z" transform="matrix(.98227744 .18743275 -.18743275 .98227744 75.557045 13.601004)"/><path d="m0 0h.595v.681h-.595z" transform="matrix(.98228725 .18738131 -.18738131 .98228725 79.292991 14.879999)"/><path d="m447.706 74.641a.175.175 0 0 1 -.084-.041 1.378 1.378 0 0 0 -1.593-.323.177.177 0 0 1 -.179-.3 1.715 1.715 0 0 1 2.006.363.177.177 0 0 1 -.151.306z" transform="translate(-374.819 -59.806)"/><path d="m448.089 73.9a.18.18 0 0 1 -.084-.041 1.992 1.992 0 0 0 -2.291-.457.177.177 0 1 1 -.18-.3 2.352 2.352 0 0 1 2.705.5.177.177 0 0 1 -.15.306z" transform="translate(-374.74 -59.577)"/><path d="m448.474 73.024a.176.176 0 0 1 -.084-.042 2.519 2.519 0 0 0 -2.927-.577.177.177 0 0 1 -.179-.3 2.9 2.9 0 0 1 3.341.618.177.177 0 0 1 -.151.305z" transform="translate(-374.679 -59.32)"/><path d="m447.288 75a.443.443 0 1 1 -.353-.519.443.443 0 0 1 .353.519z" transform="translate(-374.978 -59.971)"/></g><rect fill="#fff" height="42.998" rx="5.338" stroke="#263238" stroke-miterlimit="10" transform="matrix(.98227417 .18744989 -.18744989 .98227417 23.614939 44.247085)" width="49.687"/><path d="m0 0 38.481 7.343" fill="none" stroke="#263238" stroke-miterlimit="10" transform="translate(19.395 96.943)"/><path d="m0 0 38.481 7.343" fill="none" stroke="#263238" stroke-miterlimit="10" transform="translate(17.963 104.452)"/><text fill="#222" font-family="AppleSDGothicNeo-Medium, Apple SD Gothic Neo" font-size="13" font-weight="500" letter-spacing="-.05em" transform="matrix(.98162718 .190809 -.190809 .98162718 33.233015 66.44994)"><tspan x="0" y="0">주문</tspan><tspan x="0" y="13">완료</tspan></text><text fill="#222" font-family="AppleSDGothicNeo-Bold, Apple SD Gothic Neo" font-size="8" font-weight="700" letter-spacing="-.05em" transform="matrix(.98162718 .190809 -.190809 .98162718 33.690008 38.897888)"><tspan x="0" y="0">아름드림</tspan></text></g><path d="m0 1.432 9.309-1.432" fill="none" stroke="#263238" stroke-miterlimit="10" transform="translate(213.205 93.904)"/><path d="m0 0 5.012 1.432" fill="none" stroke="#263238" stroke-miterlimit="10" transform="translate(211.773 106.077)"/><path d="m0 0 9.309 6.445" fill="none" stroke="#263238" stroke-miterlimit="10" transform="translate(208.909 115.386)"/><g transform="translate(119.822 198.559)"><ellipse cx="49.225" cy="47.666" fill="#263238" rx="48.213" ry="45.306"/><ellipse cx="48.213" cy="45.306" fill="#fff" rx="48.213" ry="45.306" stroke="#263238" stroke-miterlimit="10"/><ellipse cx="48.213" cy="45.307" fill="#fff" rx="41.616" ry="39.107" stroke="#263238" stroke-miterlimit="10"/><path d="m241.027 385.535c-16.7 0-30.243 17.015-30.243 38 0 13.54 5.64 25.418 14.124 32.149 1.4.118 2.817.188 4.252.188 17.556 0 32.869-8.988 41.043-22.328a47.227 47.227 0 0 0 1.068-10.009c-.001-20.985-13.541-38-30.244-38z" fill="#263238" transform="translate(-181.285 -366.56)"/><g stroke-miterlimit="10"><path d="m0 0h19.698v4.712h-19.698z" fill="#fff" stroke="#263238" transform="translate(10.159 39.841)"/><ellipse cx="55.158" cy="41.94" fill="#fff" rx="30.039" ry="28.228" stroke="#263238"/><ellipse cx="55.158" cy="41.94" fill="#263238" rx="25.078" ry="23.566" stroke="#263238"/><path d="m230.1 381.933a9.463 9.463 0 0 0 -.56-1.151c-2.557-4.45-2.237-10.114-.319-15.373" fill="none" stroke="#263238" transform="translate(-185.453 -361.603)"/><path d="m231.287 396.7s1.342-5.091-.4-9.367" fill="none" stroke="#fff" transform="translate(-186.236 -367.002)"/><path d="m242.691 380.782c-2.557-4.45-2.238-10.114-.32-15.373" fill="none" stroke="#263238" transform="translate(-188.691 -361.603)"/><path d="m244.251 396.323s1.6-6.068-.959-10.518" fill="none" stroke="#fff" transform="translate(-189.291 -366.626)"/><path d="m256.153 381.381q-.146-.3-.315-.6c-2.558-4.45-2.238-10.114-.32-15.373" fill="none" stroke="#263238" transform="translate(-191.928 -361.603)"/><path d="m257.5 396.519s1.46-5.544-.644-9.919" fill="none" stroke="#fff" transform="translate(-192.632 -366.822)"/></g></g><g stroke="#263238" stroke-miterlimit="10"><path d="m350.591 331.164s-.784.043-2.189.2c-1.331-4.518-5.322-17.893-7.943-24.8-3.185-8.4-7.527-20.266-10.422-25.187s-2.606-7.817-8.106-12.449-10.422-2.606-10.422-2.606-.868-3.474-6.369-5.211-13.028 1.737-13.028 1.737-1.158-2.027-6.658-1.448a9.577 9.577 0 0 0 -7.527 5.5s-11.291-22.581-15.634-24.318-8.685 2.606-6.948 6.659 14.764 26.635 16.5 31.845 5.5 13.9 5.5 13.9-12.445-8.986-16.21-9.853-9.264-1.448-12.449 2.027 4.343 4.342 10.422 9.843 15.923 18.239 20.555 26.345 14.475 9.553 18.818 14.185c3.056 3.261 7.4 7.809 9.707 10.218a26.246 26.246 0 0 0 -2.181 2.52l9.554 23.449s2.026-3.184 10.132-9.553 33.293-14.186 33.293-14.186z" fill="#263238" transform="translate(-70.612 -132.694)"/><path d="m309.3 341.368s-6.948-7.237-11.29-11.87-14.185-6.079-18.818-14.185-14.475-20.845-20.555-26.345-13.606-6.369-10.421-9.843 8.685-2.9 12.448-2.026 16.212 9.843 16.212 9.843-3.763-8.685-5.5-13.9-14.765-27.792-16.5-31.845 2.606-8.4 6.948-6.659 15.633 24.318 15.633 24.318a9.576 9.576 0 0 1 7.527-5.5c5.5-.579 6.659 1.448 6.659 1.448s7.527-3.475 13.027-1.737 6.37 5.211 6.37 5.211 4.921-2.026 10.421 2.606 5.211 7.527 8.106 12.448 7.238 16.791 10.422 25.187 8.4 26.344 8.4 26.344l-37.345 20.266z" fill="#fff" transform="translate(-70.496 -130.716)"/><path d="m0 0 10.133 15.054" fill="none" transform="translate(206.958 128.144)"/><path d="m0 0 9.264 14.475" fill="none" transform="translate(221.144 124.091)"/><path d="m0 0 6.369 11.291" fill="none" transform="translate(240.54 127.565)"/><path d="m0 0 1.324 3.841" fill="none" transform="translate(210.845 169.176)"/><path d="m0 0 3.545 10.281" fill="none" transform="translate(206.379 156.226)"/><path d="m0 0 2.316 3.185" fill="none" transform="translate(222.591 146.672)"/><path d="m0 0 2.606 3.474" fill="none" transform="translate(233.303 143.487)"/><path d="m0 0 1.737 5.501" fill="none" transform="translate(247.488 141.75)"/><path d="m324.514 371.313s6.658-9.265 20.265-13.9a100.537 100.537 0 0 1 24.319-5.211l8.4 18.817s-25.187 7.817-33.293 14.186-10.133 9.553-10.133 9.553z" fill="#fff" transform="translate(-89.474 -159.792)"/><path d="m350.006 439.752s-11-27.5-13.9-33.293 1.737-8.685 1.737-8.685 6.659-8.975 24.029-15.923 18.818-7.237 23.16-2.316 32.829 60.265 32.829 60.265" fill="#fff" transform="translate(-92.096 -165.699)"/><path d="m104.529 384.745a31.475 31.475 0 0 1 13.307-13.219c9.372-4.781 15.462-6.839 24.43-15.683s23.749-16.746 29.843-17.835 8.117-3.711 5.491-6.7-9.791-3.156-16.172-1-12.275 4.792-12.275 4.792c3.23-6.362 5.382-14.025 8.563-20.412 2.257-4.532 5.965-12.01 8.159-16.573 1.432-2.978 5.7-7.937 3.8-11.19-1.911-3.273-6.473-1.1-8.787 2.014-3.673 4.942-21.665 32.061-21.665 32.061l10.253-21.7 6.936-14.684c1.516-3.208 4.465-7.5 2.665-11.2a5.322 5.322 0 0 0 -9.3-.565c-2.5 4.076-21.621 40.262-21.621 40.262s11.968-31.06 13.5-34.629c1.868-4.36.765-8.159-1.992-8.137-4.005.031-5.9 4.466-7.469 7.483l.875-1.272c-3.745 4.994-6.264 11.555-9.4 16.973q-5.492 9.5-11.367 18.772c.77-6.4 3.338-12.4 6.521-17.948 1.92-3.349 9.914-11.573 8.549-15.616-1.176-3.48-9.944 3.06-15.043 10.2-2.78 3.891-10.064 14.5-12.067 21.963s-16.033 32.876-19.78 39.959-8.248 19.588-8.248 19.588z" fill="#263238" transform="translate(-27.34 -139.63)"/><path d="m111.981 407.74s-7.217-8.84-21.081-12.62a100.529 100.529 0 0 0 -24.594-3.7l-7.219 19.3s25.621 6.249 34.1 12.106 10.7 8.911 10.7 8.911z" fill="#263238" transform="translate(-24.101 -169.449)"/><path d="m103.263 380.311a31.468 31.468 0 0 1 13.307-13.218c9.371-4.782 15.461-6.839 24.43-15.684s23.748-16.746 29.842-17.835 8.117-3.711 5.491-6.7-9.791-3.155-16.171-1-12.276 4.793-12.276 4.793c3.23-6.363 5.382-14.024 8.563-20.412 2.258-4.532 5.965-12.009 8.159-16.573 1.432-2.978 5.7-7.938 3.8-11.19-1.91-3.273-6.472-1.1-8.786 2.015-3.677 4.943-21.669 32.065-21.669 32.065l10.253-21.706c5.194-11 7.67-16.239 6.936-14.684 1.515-3.208 4.464-7.5 2.664-11.2a5.322 5.322 0 0 0 -9.3-.564c-2.5 4.076-21.621 40.261-21.621 40.261s11.968-31.059 13.5-34.628c1.868-4.359.765-8.159-1.991-8.138-4.006.032-5.9 4.466-7.469 7.483l.875-1.272c-3.745 4.993-6.264 11.555-9.4 16.974q-5.491 9.5-11.367 18.771c.77-6.4 3.337-12.4 6.52-17.948 1.92-3.349 9.915-11.573 8.549-15.615-1.176-3.481-9.944 3.059-15.043 10.2-2.773 3.885-10.059 14.494-12.059 21.957s-16.036 32.882-19.783 39.964-8.247 19.588-8.247 19.588z" fill="#fff" transform="translate(-27.028 -138.538)"/><path d="m3.457 0-3.457 6.984" fill="none" transform="translate(96.404 170.137)"/><path d="m2.697 0-2.697 3.496" fill="none" transform="translate(108.232 178.031)"/><path d="m3.465 0-3.465 5.048" fill="none" transform="translate(117.394 192.126)"/><path d="m.278 0-.278 3.002" fill="none" transform="translate(102.658 188.809)"/><path d="m0 0 .012 2.904" fill="none" transform="translate(94.299 183.326)"/><path d="m0 0 .697 4.934" fill="none" transform="translate(81.593 177.277)"/><path d="m110.714 403.307s-7.217-8.837-21.084-12.62a100.545 100.545 0 0 0 -24.593-3.7l-7.22 19.3s25.621 6.249 34.1 12.106 10.7 8.911 10.7 8.911z" fill="#fff" transform="translate(-23.789 -168.358)"/><path d="m92.124 451.081s1.8-6.036 4.328-11.993-2.269-8.561-2.269-8.561-7.2-8.547-24.965-14.411-19.228-6.064-23.259-.884-17 36.311-17 36.311" fill="#fff" transform="translate(-16.681 -174.401)"/></g></svg>