<svg xmlns="http://www.w3.org/2000/svg" width="19.594" height="18" viewBox="0 0 19.594 18">
  <g id="ic_kakao" transform="translate(-238.332 -245.726)">
    <path id="패스_2007" data-name="패스 2007" d="M246.163,252.3l-.657,1.873h1.334l-.656-1.871Z" fill="#222"/>
    <path id="패스_2008" data-name="패스 2008" d="M248.129,245.726c-5.411,0-9.8,3.467-9.8,7.745,0,2.784,1.859,5.224,4.648,6.589-.205.765-.742,2.772-.85,3.2-.132.533.2.525.41.382.169-.112,2.685-1.822,3.771-2.561a12.3,12.3,0,0,0,1.818.134c5.41,0,9.8-3.468,9.8-7.745S253.539,245.726,248.129,245.726Zm-4.822,9.87a.476.476,0,0,1-.474.476h-.1a.476.476,0,0,1-.475-.476v-3.431h-.931a.487.487,0,0,1,0-.975h2.865a.487.487,0,0,1,0,.975h-.88Zm4.69.451a.475.475,0,0,1-.6-.29l-.243-.694H245.2l-.243.694a.473.473,0,1,1-.893-.314l1.4-3.766c.008-.022.017-.043.027-.064a.681.681,0,0,1,.694-.492.7.7,0,0,1,.669.412l0,0,1.428,3.906A.475.475,0,0,1,248,256.047Zm3.075-.007h-1.947a.443.443,0,0,1-.443-.443.393.393,0,0,1,.009-.084.472.472,0,0,1-.009-.085V251.65a.528.528,0,1,1,1.057,0v3.505h1.333a.443.443,0,0,1,0,.885Zm4.163-.062a.471.471,0,0,1-.662-.094l-1.4-1.843-.3.3v1.2a.529.529,0,1,1-1.057,0V251.65a.529.529,0,1,1,1.057,0v1.377l1.66-1.66a.465.465,0,1,1,.658.657l-1.341,1.342,1.485,1.95A.474.474,0,0,1,255.235,255.978Z" fill="#222"/>
  </g>
</svg>
