<svg id="Ic_Mypage" xmlns="http://www.w3.org/2000/svg" width="32" height="32" viewBox="0 0 32 32">
  <path id="패스_271" data-name="패스 271" d="M265.949,263.138a.781.781,0,1,0-1.529.318.817.817,0,0,1-.166.684.793.793,0,0,1-.625.3H248.371a.793.793,0,0,1-.625-.3.817.817,0,0,1-.166-.684,8.633,8.633,0,0,1,8.213-6.835c.069,0,.138,0,.207,0s.139,0,.208,0a8.594,8.594,0,0,1,6.941,3.815.781.781,0,0,0,1.3-.87,10.167,10.167,0,0,0-5.266-4,5.312,5.312,0,1,0-6.359,0,10.156,10.156,0,0,0-6.771,7.571,2.374,2.374,0,0,0,2.32,2.862h15.258a2.374,2.374,0,0,0,2.32-2.862Zm-13.7-11.825a3.75,3.75,0,1,1,3.94,3.745l-.19,0-.189,0A3.755,3.755,0,0,1,252.25,251.313Z" transform="translate(-240 -240)" fill="#999"/>
  <rect id="사각형_250" data-name="사각형 250" width="32" height="32" fill="none"/>
</svg>
