<svg xmlns="http://www.w3.org/2000/svg" xmlns:xlink="http://www.w3.org/1999/xlink" width="104" height="44" viewBox="0 0 104 44">
  <defs>
    <filter id="사각형_251" x="0" y="0" width="104" height="44" filterUnits="userSpaceOnUse">
      <feOffset dy="2" input="SourceAlpha"/>
      <feGaussianBlur stdDeviation="2" result="blur"/>
      <feFlood flood-opacity="0.051"/>
      <feComposite operator="in" in2="blur"/>
      <feComposite in="SourceGraphic"/>
    </filter>
  </defs>
  <g id="Filter" transform="translate(6 4)">
    <g transform="matrix(1, 0, 0, 1, -6, -4)" filter="url(#사각형_251)">
      <g id="사각형_251-2" data-name="사각형 251" transform="translate(6 4)" fill="#fff" stroke="#e8e8e8" stroke-width="1">
        <rect width="92" height="32" rx="16" stroke="none"/>
        <rect x="0.5" y="0.5" width="91" height="31" rx="15.5" fill="none"/>
      </g>
    </g>
    <g id="그룹_463" data-name="그룹 463" transform="translate(29 7)">
      <text id="전체삭제" transform="translate(51 14)" fill="#666" font-size="15" font-family="AppleSDGothicNeo-Regular, Apple SD Gothic Neo" letter-spacing="-0.03em"><tspan x="-50.55" y="0">전체삭제</tspan></text>
    </g>
    <g id="Ic_Trash" transform="translate(6 4)">
      <path id="패스_1964" data-name="패스 1964" d="M254.156,251.457a.547.547,0,0,1,.547.548v6.26a.547.547,0,0,1-1.094,0V252A.547.547,0,0,1,254.156,251.457Zm1.915.523-.274,6.26a.548.548,0,0,0,.523.571h.024a.547.547,0,0,0,.546-.523l.274-6.26a.547.547,0,1,0-1.093-.047Zm-4.4-.523a.547.547,0,0,0-.523.57l.274,6.26a.547.547,0,0,0,.546.523h.024a.546.546,0,0,0,.523-.57l-.274-6.26A.547.547,0,0,0,251.671,251.457Zm8.938-1.641a.547.547,0,0,1-.547.547H259.5l-.474,6.14a.547.547,0,0,1-.545.5.371.371,0,0,1-.042,0,.546.546,0,0,1-.5-.587l.467-6.056h-8.486l.66,8.552a1.089,1.089,0,0,0,1.089.991h4.989a1.081,1.081,0,0,0,1.089-.979.547.547,0,1,1,1.09.1A2.17,2.17,0,0,1,256.651,261h-4.989a2.187,2.187,0,0,1-2.179-1.989V259l-.667-8.64h-.566a.547.547,0,0,1,0-1.094h3.309v-.629A1.642,1.642,0,0,1,253.2,247h1.913a1.642,1.642,0,0,1,1.641,1.64v.629h3.309A.547.547,0,0,1,260.609,249.816Zm-7.957-.547h3.008v-.629a.548.548,0,0,0-.548-.547H253.2a.548.548,0,0,0-.548.547Z" transform="translate(-241.703 -242)" fill="#666"/>
      <rect id="사각형_307" data-name="사각형 307" width="24" height="24" fill="none"/>
    </g>
  </g>
</svg>
