<svg id="Ic_Cash" xmlns="http://www.w3.org/2000/svg" width="40" height="40" viewBox="0 0 40 40">
  <g id="그룹_611" data-name="그룹 611" transform="translate(-231 -231.235)">
    <path id="패스_2059" data-name="패스 2059" d="M261.9,258.013a1.213,1.213,0,0,1,1.289,1.116.586.586,0,0,0,1.172,0,2.331,2.331,0,0,0-1.875-2.221V256.6a.586.586,0,0,0-1.172,0v.305a2.331,2.331,0,0,0-1.875,2.221,2.382,2.382,0,0,0,2.461,2.288,1.127,1.127,0,1,1-1.289,1.116.586.586,0,1,0-1.172,0,2.332,2.332,0,0,0,1.875,2.221v.253a.586.586,0,0,0,1.172,0v-.253a2.332,2.332,0,0,0,1.875-2.221,2.382,2.382,0,0,0-2.461-2.288,1.127,1.127,0,1,1,0-2.231Z" transform="translate(-5.859 -4.945)" fill="#00276b"/>
    <path id="패스_2060" data-name="패스 2060" d="M269.953,256.067a7.63,7.63,0,0,0-3.119-2.759.586.586,0,0,0-.508,1.056,6.449,6.449,0,0,1,2.906,8.835.586.586,0,1,0,1.035.55,7.628,7.628,0,0,0-.314-7.682Z" transform="translate(-7.499 -4.254)" fill="#00276b"/>
    <path id="패스_2061" data-name="패스 2061" d="M263.7,253.5h.037a.586.586,0,0,0,0-1.172h-.04a.586.586,0,0,0,0,1.172Z" transform="translate(-6.777 -4.023)" fill="#00276b"/>
    <path id="패스_2062" data-name="패스 2062" d="M257.392,267a6.452,6.452,0,0,1-2.906-8.836.586.586,0,0,0-1.034-.551,7.62,7.62,0,0,0,3.432,10.442.577.577,0,0,0,.254.059.586.586,0,0,0,.254-1.115Z" transform="translate(-4.141 -5.268)" fill="#00276b"/>
    <path id="패스_2063" data-name="패스 2063" d="M261.339,271.079h-.034a.586.586,0,1,0-.005,1.172h.039a.586.586,0,1,0,0-1.171Z" transform="translate(-6.179 -8.711)" fill="#00276b"/>
    <path id="패스_2064" data-name="패스 2064" d="M258.7,246.322a2.725,2.725,0,0,0-.26-.478h1.526a2.7,2.7,0,0,0,0-5.39h-4.693a2.693,2.693,0,0,0-2.221-4.219H238.7a2.7,2.7,0,1,0,0,5.39h4.692a2.689,2.689,0,0,0,0,3.047H241.86a2.693,2.693,0,0,0-1.675,4.8,2.69,2.69,0,0,0,0,4.219,2.69,2.69,0,0,0,0,4.219,2.693,2.693,0,0,0,1.675,4.8h6.905a9.959,9.959,0,1,0,9.935-16.4Zm-21.528-7.392a1.526,1.526,0,0,1,1.523-1.524h14.356a1.524,1.524,0,0,1,0,3.047H238.7A1.525,1.525,0,0,1,237.172,238.931Zm6.914,4.219a1.525,1.525,0,0,1,1.523-1.524h14.356a1.524,1.524,0,0,1,0,3.047H245.61A1.525,1.525,0,0,1,244.087,243.149Zm-3.75,4.219a1.525,1.525,0,0,1,1.523-1.524h14.356a1.521,1.521,0,0,1,.664.153q-.416-.035-.841-.035a9.929,9.929,0,0,0-7.048,2.929H241.86A1.525,1.525,0,0,1,240.337,247.368Zm0,4.219a1.526,1.526,0,0,1,1.523-1.524h6.13a9.923,9.923,0,0,0-1.506,3.047H241.86A1.525,1.525,0,0,1,240.337,251.587Zm0,4.219a1.525,1.525,0,0,1,1.523-1.524h4.355a9.974,9.974,0,0,0-.036,3.047H241.86A1.525,1.525,0,0,1,240.337,255.806Zm1.523,5.742a1.524,1.524,0,0,1,0-3.047h4.558a9.932,9.932,0,0,0,1.406,3.047Zm14.18,3.164a8.789,8.789,0,1,1,8.789-8.789A8.8,8.8,0,0,1,256.039,264.712Z" fill="#00276b"/>
  </g>
  <rect id="사각형_335" data-name="사각형 335" width="40" height="40" fill="none"/>
</svg>
