<svg xmlns="http://www.w3.org/2000/svg" xmlns:xlink="http://www.w3.org/1999/xlink" width="14.754" height="16.067" viewBox="0 0 14.754 16.067">
  <defs>
    <clipPath id="clip-path">
      <rect id="사각형_277" data-name="사각형 277" width="14.554" height="15.206" fill="#b10303" stroke="#fff" stroke-width="0.2"/>
    </clipPath>
  </defs>
  <g id="그룹_490" data-name="그룹 490" transform="translate(0.1 0.1)">
    <path id="패스_1925" data-name="패스 1925" d="M290.6,416.071l-1.122.006a2.3,2.3,0,0,1,.48-1.473,1.509,1.509,0,0,1,1.184-.517.854.854,0,0,0,.763-.384,1.424,1.424,0,0,0,.225-.743.555.555,0,1,1,1.1,0,2.736,2.736,0,0,1-.444,1.475,1.914,1.914,0,0,1-1.647.873.462.462,0,0,0-.384.138,1.1,1.1,0,0,0-.157.63Zm0,0" transform="translate(-281.053 -412.35)" fill="#b10303" stroke="#fff" stroke-width="0.2"/>
    <path id="패스_1929" data-name="패스 1929" d="M301.821,418.548a3.639,3.639,0,0,0-1.16-.811,3.548,3.548,0,0,0-1.434-.3h-9.414a1.482,1.482,0,0,0-1.481,1.481v3.9a5.523,5.523,0,0,0,10.613,2.141l.007-.016h.275a3.539,3.539,0,0,0,1.4-.287,3.622,3.622,0,0,0,1.144-.777,3.748,3.748,0,0,0,.809-1.209,3.86,3.86,0,0,0,.012-2.926,3.754,3.754,0,0,0-.773-1.189Zm-4.093,6.389a4.417,4.417,0,0,1-8.29-2.124v-3.9a.375.375,0,0,1,.375-.375h8.073a.376.376,0,0,1,.376.374l.009,3.886a4.442,4.442,0,0,1-.118,1.029,4.377,4.377,0,0,1-.425,1.105Zm4.044-3.754a2.6,2.6,0,0,1-2.49,2.648,5.521,5.521,0,0,0,.094-1.032l-.009-3.886a1.458,1.458,0,0,0-.047-.37,2.6,2.6,0,0,1,2.453,2.64Zm0,0" transform="translate(-288.327 -412.472)" fill="#b10303" stroke="#fff" stroke-width="0.2"/>
    <path id="패스_1931" data-name="패스 1931" d="M290.6,416.071l-1.122.006a2.3,2.3,0,0,1,.48-1.473,1.509,1.509,0,0,1,1.184-.517.854.854,0,0,0,.763-.384,1.424,1.424,0,0,0,.225-.743.555.555,0,1,1,1.1,0,2.736,2.736,0,0,1-.444,1.475,1.914,1.914,0,0,1-1.647.873.462.462,0,0,0-.384.138,1.1,1.1,0,0,0-.157.63Zm0,0" transform="translate(-288.145 -412.35)" fill="#b10303" stroke="#fff" stroke-width="0.2"/>
    <path id="패스_1932" data-name="패스 1932" d="M290.6,416.071l-1.122.006a2.3,2.3,0,0,1,.48-1.473,1.509,1.509,0,0,1,1.184-.517.854.854,0,0,0,.763-.384,1.424,1.424,0,0,0,.225-.743.555.555,0,1,1,1.1,0,2.736,2.736,0,0,1-.444,1.475,1.914,1.914,0,0,1-1.647.873.462.462,0,0,0-.384.138,1.1,1.1,0,0,0-.157.63Zm0,0" transform="translate(-284.641 -412.35)" fill="#b10303" stroke="#fff" stroke-width="0.2"/>
  </g>
</svg>
