<svg height="32" width="32" xmlns="http://www.w3.org/2000/svg"><g fill="#222" transform="translate(-280 -404.89)"><path d="m291.071 414.546a1 1 0 1 0 .292.708 1.006 1.006 0 0 0 -.292-.708zm0 0" transform="translate(-.364 -.364)"/><path d="m294 409.89h-8a1 1 0 0 0 -1 1v8a1 1 0 0 0 1 1h8a1 1 0 0 0 1-1v-8a1 1 0 0 0 -1-1zm-1 8h-6v-6h6zm0 0"/><path d="m304.162 414.546a1 1 0 1 0 .292.708 1.008 1.008 0 0 0 -.292-.708zm0 0" transform="translate(-1.455 -.364)"/><path d="m307.091 409.89h-8a1 1 0 0 0 -1 1v8a1 1 0 0 0 1 1h8a1 1 0 0 0 1-1v-8a1 1 0 0 0 -1-1zm-1 8h-6v-6h6zm0 0" transform="translate(-1.091)"/><path d="m291.071 427.637a1 1 0 1 0 .292.707 1.008 1.008 0 0 0 -.292-.707zm0 0" transform="translate(-.364 -1.455)"/><path d="m294 422.981h-8a1 1 0 0 0 -1 1v8a1 1 0 0 0 1 1h8a1 1 0 0 0 1-1v-8a1 1 0 0 0 -1-1zm-1 8h-6v-6h6zm0 0" transform="translate(0 -1.091)"/><path d="m304.122 427.345h-.667a1 1 0 0 0 0 2h.667a1 1 0 0 0 0-2zm0 0" transform="translate(-1.455 -1.455)"/><path d="m307.515 429.527a1 1 0 0 0 -1 1v1h-2.333a1 1 0 1 0 0 2h3.333a1 1 0 0 0 1-1v-2a1 1 0 0 0 -1-1zm0 0" transform="translate(-1.515 -1.636)"/><path d="m299.091 427.345a1 1 0 0 0 -1 1v1.334a1 1 0 0 0 2 0v-1.334a1 1 0 0 0 -1-1zm0 0" transform="translate(-1.091 -1.455)"/><path d="m304 422.981h-2a1 1 0 0 0 0 2h2a1 1 0 0 0 0-2zm0 0" transform="translate(-1.333 -1.091)"/></g><path d="m0 0h32v32h-32z" fill="none"/></svg>