<svg id="Ic_Syrup_Selected" xmlns="http://www.w3.org/2000/svg" width="19.688" height="24" viewBox="0 0 19.688 24">
  <path id="패스_2221" data-name="패스 2221" d="M289.35,421.278a7.826,7.826,0,0,0-1.694,4.878,7.734,7.734,0,0,0,15.469,0,7.824,7.824,0,0,0-1.694-4.878l-6.04-7.544Zm12.369,4.878a6.328,6.328,0,0,1-12.657,0,6.416,6.416,0,0,1,1.386-4l4.943-6.173,4.942,6.173a6.41,6.41,0,0,1,1.386,4Zm0,0" transform="translate(-287.656 -409.89)" fill="#00276b"/>
  <path id="패스_2222" data-name="패스 2222" d="M291.875,426.156h-1.406a4.928,4.928,0,0,0,4.922,4.922v-1.407a3.519,3.519,0,0,1-3.516-3.515Zm0,0" transform="translate(-287.656 -409.89)" fill="#00276b"/>
  <path id="패스_2223" data-name="패스 2223" d="M307.344,415.562a3.471,3.471,0,0,0-.767-2.192l-2.749-3.48-2.749,3.48a3.477,3.477,0,0,0-.767,2.192,3.516,3.516,0,0,0,7.032,0Zm-5.625,0a2.084,2.084,0,0,1,.459-1.315l1.65-2.088,1.65,2.088a2.078,2.078,0,0,1,.459,1.315,2.109,2.109,0,1,1-4.218,0Zm0,0" transform="translate(-287.656 -409.89)" fill="#00276b"/>
</svg>
