
<svg id="Ic_Cream" xmlns="http://www.w3.org/2000/svg" xmlns:xlink="http://www.w3.org/1999/xlink" width="28.08" height="24" viewBox="0 0 28.08 24">
  <defs>
    <clipPath id="clip-path">
      <rect id="사각형_366" data-name="사각형 366" width="28.08" height="24" fill="#999"/>
    </clipPath>
  </defs>
  <g id="Ic_Cream-2" data-name="Ic_Cream">
    <g id="그룹_734" data-name="그룹 734" clip-path="url(#clip-path)">
      <path id="패스_2224" data-name="패스 2224" d="M297.416,433.592c7.881,0,14.057-3.522,14.057-8.02,0-1.947-1.2-3.813-3.389-5.257a.508.508,0,0,0-.087-.044c0-.063.015-.125.015-.188,0-2.36-2.26-4.4-5.923-5.4a3.978,3.978,0,0,0-.209-2.873c-2.568-4.21-8.367-.343-11.489.81-.579.214-.858,1.114-.187,1.437.581.282,1.153.579,1.727.874-3.176,1.067-5.109,2.988-5.109,5.154,0,.063.009.125.014.188a.565.565,0,0,0-.089.044c-2.185,1.444-3.387,3.31-3.387,5.257,0,4.5,6.173,8.02,14.056,8.02Zm-10.193-11.845a5.71,5.71,0,0,0,1.9,2.11.7.7,0,0,0,.414.133.72.72,0,0,0,.417-1.307,3.449,3.449,0,0,1-1.689-2.6c0-1.638,1.9-3.2,4.851-4.01a.8.8,0,0,0,.319-.037,2.936,2.936,0,0,1,.722-.2.792.792,0,0,0,.188-1.436c-.624-.331-1.247-.652-1.873-.973,1.865-.862,3.7-1.849,5.786-1.921,3.312-.118,2.3,2.953,1.74,4.83-.819,2.733-.251,4.683,2.864,4.9,1.012.072,1.005-1.5,0-1.573-2.386-.168-1.674-1.98-1.151-3.6,2.925.8,4.866,2.386,4.866,4.015a3.537,3.537,0,0,1-1.908,2.747.72.72,0,0,0,.4,1.322.709.709,0,0,0,.391-.117,5.939,5.939,0,0,0,2.156-2.29,4.962,4.962,0,0,1,2.424,3.827c0,3.567-5.778,6.579-12.616,6.579s-12.617-3.012-12.617-6.579a4.964,4.964,0,0,1,2.424-3.825Zm0,0" transform="translate(-283.36 -409.89)" fill="#999"/>
    </g>
  </g>
  <path id="패스_2225" data-name="패스 2225" d="M293.208,426.071c2.8,1.13,6.619,1.6,9.207-.279.825-.6.028-1.987-.807-1.38-2.263,1.646-5.54,1.1-7.975.12-.957-.387-1.369,1.16-.425,1.539Zm0,0" transform="translate(-283.36 -409.89)" fill="#999"/>
</svg>
