<svg xmlns="http://www.w3.org/2000/svg" width="20.079" height="21.826" viewBox="0 0 20.079 21.826">
  <path id="패스_1905" data-name="패스 1905" d="M258.182,263.476a.853.853,0,1,1-1.208,1.2l-1.1-1.1v1.4a.853.853,0,0,1-1.705,0v-1.422l-1.149,1.134a.853.853,0,0,1-1.2-1.214l2.346-2.315v-4.768l-4.087,2.425-.844,3.18a.852.852,0,0,1-.823.635.865.865,0,0,1-.219-.029.853.853,0,0,1-.606-1.043c.094-.354.246-.923.4-1.5l-1.189.7a.852.852,0,1,1-.869-1.466l1.211-.719-1.546-.409a.852.852,0,1,1,.437-1.648l3.166.837,4.151-2.463-4.122-2.435-3.2.809a.832.832,0,0,1-.209.026.853.853,0,0,1-.208-1.68l1.535-.387-1.248-.738a.852.852,0,1,1,.867-1.468l1.23.727c-.154-.587-.306-1.165-.4-1.524a.853.853,0,0,1,1.65-.433l.835,3.188,4.1,2.419v-4.729l-2.346-2.314a.852.852,0,1,1,1.2-1.213l1.149,1.133v-1.421a.853.853,0,1,1,1.705,0v1.421l1.149-1.134a.853.853,0,0,1,1.2,1.214l-2.347,2.314v4.725l4.1-2.43.79-3.124a.853.853,0,1,1,1.653.418c-.089.349-.23.909-.375,1.478l1.2-.715a.852.852,0,0,1,.869,1.466l-1.269.753,1.562.419a.852.852,0,0,1-.219,1.676.837.837,0,0,1-.221-.029l-3.172-.849-4.921,2.919v5.784l1.03,1.033Zm5.784-6.957-3.106.831-2.166-1.279a.852.852,0,1,0-.867,1.468l2.128,1.257.849,3.238a.851.851,0,0,0,.824.637.885.885,0,0,0,.216-.027.853.853,0,0,0,.608-1.041c-.1-.37-.255-.971-.412-1.574l1.243.734a.84.84,0,0,0,.432.119.853.853,0,0,0,.435-1.587l-1.234-.729,1.49-.4a.852.852,0,1,0-.44-1.647Z" transform="translate(-244.96 -244)" fill="#fff"/>
</svg>
