<svg id="img_shot" xmlns="http://www.w3.org/2000/svg" width="48" height="48" viewBox="0 0 48 48">
  <rect id="사각형_300" data-name="사각형 300" width="48" height="48" fill="none"/>
  <g id="그룹_762" data-name="그룹 762" transform="translate(-127 -223.89)">
    <path id="패스_2230" data-name="패스 2230" d="M271,271.257a1.055,1.055,0,0,0,2.109,0,.352.352,0,0,1,.352-.352h2.813a2.464,2.464,0,0,0,2.461-2.461,1.055,1.055,0,0,0-2.109,0,.352.352,0,0,1-.352.352h-2.812A2.464,2.464,0,0,0,271,271.257Zm0,0" transform="translate(-122.344 -33.984)" fill="#00276b"/>
    <path id="패스_2231" data-name="패스 2231" d="M227.055,234.812a1.054,1.054,0,0,0,1.055-1.055.352.352,0,0,1,.352-.352h2.812a2.464,2.464,0,0,0,2.461-2.461,1.055,1.055,0,1,0-2.109,0,.352.352,0,0,1-.352.352h-2.812A2.464,2.464,0,0,0,226,233.757a1.054,1.054,0,0,0,1.055,1.055Zm0,0" transform="translate(-81.562)" fill="#00276b"/>
    <path id="패스_2232" data-name="패스 2232" d="M162.367,339.2h-1.758v-1.758a1.054,1.054,0,0,0-1.055-1.055h-22.5A1.054,1.054,0,0,0,136,337.445v2.785a18.022,18.022,0,0,0,2.822,9.69,13.411,13.411,0,0,1,2.1,7.212v4.219a1.054,1.054,0,0,0,1.055,1.055h12.656a1.054,1.054,0,0,0,1.055-1.055v-4.219a13.413,13.413,0,0,1,1.078-5.273h5.6a3.871,3.871,0,0,0,3.867-3.867V343.07a3.871,3.871,0,0,0-3.867-3.867ZM153.578,360.3H143.031v-2.109h10.547Zm2.732-21.8h2.19v1.731a15.914,15.914,0,0,1-2.492,8.558,15.516,15.516,0,0,0-2.394,7.289H143a15.516,15.516,0,0,0-2.394-7.289,15.914,15.914,0,0,1-2.492-8.558V338.5h2.19m23.826,9.492a1.76,1.76,0,0,1-1.758,1.758h-4.473a18.017,18.017,0,0,0,2.682-8.437h1.791a1.76,1.76,0,0,1,1.758,1.758Zm0,0" transform="translate(0 -96.516)" fill="#00276b"/>
  </g>
</svg>
