<svg xmlns="http://www.w3.org/2000/svg" xmlns:xlink="http://www.w3.org/1999/xlink" width="20" height="18.317" viewBox="0 0 20 18.317">
  <defs>
    <clipPath id="clip-path">
      <rect id="사각형_238" data-name="사각형 238" width="20" height="18.317" fill="#00276b"/>
    </clipPath>
  </defs>
  <g id="Ic_Cart_Blue" transform="translate(-285.5 -410.4)">
    <g id="그룹_452" data-name="그룹 452" transform="translate(285.5 410.4)">
      <g id="그룹_451" data-name="그룹 451" clip-path="url(#clip-path)">
        <path id="패스_260" data-name="패스 260" d="M301.6,422.49H293.1a2.485,2.485,0,0,1-2.436-2l-1.673-8.359h-2.635a.829.829,0,0,1,0-1.658h3.314a.829.829,0,0,1,.828.663l1.79,9.03a.828.828,0,0,0,.828.663H301.6a.829.829,0,0,0,.828-.655l1.334-6.213a.829.829,0,0,0-.828-1h-8.285a.828.828,0,1,1,0-1.657h8.285a2.484,2.484,0,0,1,2.485,3.015l-1.35,6.214a2.486,2.486,0,0,1-2.469,1.955Zm0,0" transform="translate(-285.505 -410.413)" fill="#00276b"/>
      </g>
    </g>
    <path id="패스_261" data-name="패스 261" d="M294.976,431.355a2.485,2.485,0,1,1,2.485-2.485,2.486,2.486,0,0,1-2.485,2.485Zm0-3.314a.829.829,0,1,0,.828.829.83.83,0,0,0-.828-.829Zm0,0" transform="translate(-1.165 -2.664)" fill="#00276b"/>
    <path id="패스_262" data-name="패스 262" d="M303.924,431.355a2.485,2.485,0,1,1,2.485-2.485,2.485,2.485,0,0,1-2.485,2.485Zm0-3.314a.829.829,0,1,0,.827.829.829.829,0,0,0-.827-.829Zm0,0" transform="translate(-2.656 -2.664)" fill="#00276b"/>
  </g>
</svg>
