<svg id="Ic_Fav" xmlns="http://www.w3.org/2000/svg" width="32" height="32" viewBox="0 0 32 32">
  <g id="그룹_454" data-name="그룹 454" transform="translate(-282.5 -406.787)">
    <g id="그룹_455" data-name="그룹 455" transform="translate(288.5 412.787)">
      <path id="패스_259" data-name="패스 259" d="M308.448,420.018a1.063,1.063,0,0,0-.914-.73l-5.773-.524-2.281-5.341a1.063,1.063,0,0,0-1.957,0l-2.281,5.341-5.775.524a1.064,1.064,0,0,0-.6,1.86l4.365,3.827-1.287,5.668a1.062,1.062,0,0,0,1.581,1.149l4.979-2.977,4.978,2.977a1.063,1.063,0,0,0,1.582-1.149l-1.287-5.668,4.365-3.827a1.066,1.066,0,0,0,.31-1.13Zm0,0" transform="translate(-288.5 -412.776)" fill="none" stroke="#999" stroke-width="1.6"/>
    </g>
  </g>
  <rect id="사각형_248" data-name="사각형 248" width="32" height="32" fill="none"/>
</svg>
