<svg id="Ic_Order" xmlns="http://www.w3.org/2000/svg" xmlns:xlink="http://www.w3.org/1999/xlink" width="32" height="32" viewBox="0 0 32 32">
  <defs>
    <clipPath id="clip-path">
      <rect id="사각형_242" data-name="사각형 242" width="19.61" height="20" transform="translate(287.195 411.89)" fill="#999"/>
    </clipPath>
  </defs>
  <g id="그룹_460" data-name="그룹 460" transform="translate(-281.195 -405.89)">
    <g id="그룹_459" data-name="그룹 459">
      <g id="그룹_458" data-name="그룹 458" clip-path="url(#clip-path)">
        <path id="패스_269" data-name="패스 269" d="M304.273,431.864H289.727a2.494,2.494,0,0,1-2.493-2.784l1.271-10.806a2.494,2.494,0,0,1,2.494-2.2.831.831,0,0,1,0,1.662.831.831,0,0,0-.831.732l-1.272,10.8a.832.832,0,0,0,.831.931h14.546a.832.832,0,0,0,.831-.931l-1.272-10.8a.831.831,0,0,0-.831-.732h-8.91a.831.831,0,0,1,0-1.662H303a2.494,2.494,0,0,1,2.494,2.2l1.271,10.806a2.494,2.494,0,0,1-2.493,2.784Zm0,0" fill="#00276B"/>
      </g>
    </g>
    <path id="패스_270" data-name="패스 270" d="M300.325,421.059a.832.832,0,0,1-.832-.831v-4.156a2.493,2.493,0,1,0-4.986,0v4.156a.831.831,0,0,1-1.663,0v-4.156a4.156,4.156,0,0,1,8.312,0v4.156a.831.831,0,0,1-.831.831Zm0,0" fill="#00276B"/>
  </g>
  <rect id="사각형_249" data-name="사각형 249" width="32" height="32" fill="none"/>
</svg>
