<svg xmlns="http://www.w3.org/2000/svg" id="Ic_CurrentLocaton" width="24" height="26" viewBox="0 0 24 26">
    <defs></defs>
    <g id="그룹_559" transform="translate(3 4.25)">
        <path id="패스_1982" d="M255.125 252.5a2.625 2.625 0 1 0 2.625 2.625 2.628 2.628 0 0 0-2.625-2.625zm0 3.75a1.125 1.125 0 1 1 1.125-1.125 1.126 1.126 0 0 1-1.125 1.125z" class="cls-1" transform="translate(-246.125 -246.125)"/>
        <path id="패스_1983" d="M261.25 252.25h-1.544a6.759 6.759 0 0 0-5.956-5.956v-1.544a.75.75 0 0 0-1.5 0v1.544a6.759 6.759 0 0 0-5.956 5.956h-1.544a.75.75 0 0 0 0 1.5h1.544a6.759 6.759 0 0 0 5.956 5.956v1.544a.75.75 0 0 0 1.5 0v-1.544a6.76 6.76 0 0 0 5.956-5.956h1.544a.75.75 0 0 0 0-1.5zm-8.25 6a5.25 5.25 0 1 1 5.25-5.25 5.256 5.256 0 0 1-5.25 5.25z" class="cls-1" transform="translate(-244 -244)"/>
    </g>
    <path id="사각형_324" fill="none" d="M0 0H24V26H0z"/>
</svg>
