<svg xmlns="http://www.w3.org/2000/svg" width="91.695" height="144.548" viewBox="0 0 91.695 144.548">
  <g id="Device_2" data-name="Device 2" transform="translate(0.514 0.514)">
    <g id="그룹_654" data-name="그룹 654" transform="translate(0 0)">
      <g id="그룹_652" data-name="그룹 652">
        <g id="그룹_649" data-name="그룹 649">
          <path id="패스_2106" data-name="패스 2106" d="M429.806,66.6l-17.259-3.293-.03.059c-.861,1.742-2.266,2.711-3.568,2.462l-.749-.142c-1.3-.249-2.251-1.667-2.41-3.6l-.005-.066-17.259-3.294a8.861,8.861,0,0,0-10.365,7.043L355.773,179.358a5.085,5.085,0,0,0,4.042,5.947l48.7,9.293a5.083,5.083,0,0,0,5.947-4.041L436.849,76.967A8.861,8.861,0,0,0,429.806,66.6Z" transform="translate(-352.633 -56.054)" fill="#a4bde8" stroke="#263238" stroke-linecap="round" stroke-linejoin="round" stroke-width="1"/>
          <path id="패스_2107" data-name="패스 2107" d="M443.553,79.5l.484-2.536A8.861,8.861,0,0,0,436.994,66.6l-17.259-3.293-.03.059c-.861,1.742-2.266,2.711-3.568,2.462l-.749-.142c-1.3-.249-2.251-1.667-2.41-3.6l-.005-.066-17.259-3.294a8.861,8.861,0,0,0-10.365,7.043l-.484,2.536Z" transform="translate(-359.82 -56.054)" fill="#fff" stroke="#263238" stroke-linecap="round" stroke-linejoin="round" stroke-width="1"/>
          <g id="그룹_636" data-name="그룹 636">
            <g id="그룹_635" data-name="그룹 635">
              <path id="패스_2108" data-name="패스 2108" d="M431.586,115.056l2.105-11.029-1-.191,6.275-29.157a8.861,8.861,0,0,0-7.043-10.365l-46.752-8.922a8.861,8.861,0,0,0-10.365,7.043L351.795,179.309a8.861,8.861,0,0,0,7.043,10.364l46.752,8.922a8.86,8.86,0,0,0,10.365-7.043l12.841-67.286,1,.19,1.244-6.517-1-.191.55-2.882Zm-17.181,69.757a8.861,8.861,0,0,1-10.364,7.043l-41.281-7.878a8.861,8.861,0,0,1-7.043-10.364L377.164,64.947A8.861,8.861,0,0,1,387.529,57.9L404.788,61.2l.005.066c.16,1.936,1.108,3.355,2.41,3.6l.749.142c1.3.249,2.707-.72,3.568-2.462l.03-.059,17.259,3.293a8.861,8.861,0,0,1,7.043,10.365Z" transform="translate(-351.636 -55.233)" fill="#707070" stroke="#263238" stroke-linecap="round" stroke-linejoin="round" stroke-width="1"/>
              <path id="패스_2109" data-name="패스 2109" d="M430.6,65.706l-43.7-8.34a9.388,9.388,0,0,0-10.981,7.462L353.563,178.269a9.388,9.388,0,0,0,7.462,10.981l43.7,8.34a9.387,9.387,0,0,0,10.981-7.462L438.066,76.687A9.388,9.388,0,0,0,430.6,65.706ZM414.838,185.3a8.86,8.86,0,0,1-10.364,7.043l-41.282-7.878A8.861,8.861,0,0,1,356.15,174.1L377.6,65.431a8.861,8.861,0,0,1,10.365-7.043l17.259,3.294,0,.066c.16,1.936,1.108,3.355,2.411,3.6l.749.142c1.3.249,2.706-.721,3.568-2.462l.03-.059,17.259,3.293a8.861,8.861,0,0,1,7.043,10.365Z" transform="translate(-352.07 -55.717)" fill="#263238" stroke="#263238" stroke-linecap="round" stroke-linejoin="round" stroke-width="1"/>
            </g>
            <path id="패스_2110" data-name="패스 2110" d="M426.845,64.394a.832.832,0,1,0-.973.662A.833.833,0,0,0,426.845,64.394Z" transform="translate(-369.753 -57.246)" fill="#707070"/>
          </g>
          <g id="그룹_648" data-name="그룹 648" transform="translate(30.097 4.726)">
            <g id="그룹_647" data-name="그룹 647">
              <g id="그룹_637" data-name="그룹 637">
                <path id="패스_2111" data-name="패스 2111" d="M393.2,62.331c-.157.827-1.143.947-1.267,1.578l-.008.043.9.172-.053.278-1.2-.229.045-.235c.169-.886,1.131-.88,1.278-1.653.053-.282-.012-.448-.239-.491s-.352.1-.4.341l-.046.243-.286-.055.042-.223c.08-.419.325-.661.748-.58S393.278,61.912,393.2,62.331Z" transform="translate(-391.568 -61.504)" fill="#263238"/>
                <path id="패스_2112" data-name="패스 2112" d="M395.226,62.707l-.014.071a.556.556,0,0,1-.441.5.555.555,0,0,1,.224.632l-.041.212c-.08.419-.328.656-.75.575s-.563-.392-.483-.811l.036-.188.286.054L394,63.96c-.047.247.026.415.246.458s.349-.084.4-.362l.041-.212c.051-.271-.038-.421-.267-.473l-.165-.031.053-.274.18.034a.335.335,0,0,0,.4-.313l.023-.126c.054-.282-.017-.445-.24-.488s-.35.091-.4.338l-.027.141-.286-.054.023-.125c.081-.419.328-.653.747-.573A.6.6,0,0,1,395.226,62.707Z" transform="translate(-392.093 -61.598)" fill="#263238"/>
                <path id="패스_2113" data-name="패스 2113" d="M396.244,63.383l-.073.38-.294-.057.073-.38Zm-.285,1.492-.073.38-.293-.056.072-.381Z" transform="translate(-392.559 -61.953)" fill="#263238"/>
                <path id="패스_2114" data-name="패스 2114" d="M397.045,63.507a.449.449,0,0,1,.451-.149c.353.067.46.355.385.747l-.1.537c-.081.42-.332.656-.751.576s-.563-.392-.482-.811l.035-.184.286.054-.038.2c-.047.247.026.415.246.458s.35-.088.4-.335l.1-.533c.047-.246-.026-.415-.246-.457a.3.3,0,0,0-.366.234l-.012.062-.286-.054.366-1.51,1.081.206-.052.274-.807-.154Z" transform="translate(-392.789 -61.712)" fill="#263238"/>
                <path id="패스_2115" data-name="패스 2115" d="M400.067,63.628l-.009.051-.286-.054.013-.071c.048-.246-.027-.411-.25-.454s-.362.085-.417.379l-.118.615a.451.451,0,0,1,.5-.21c.353.068.46.352.385.748l-.079.415a.643.643,0,1,1-1.258-.24l.267-1.4c.083-.435.331-.668.766-.585A.6.6,0,0,1,400.067,63.628Zm-1.14.846-.078.411c-.048.247.026.415.249.458s.353-.087.4-.334l.079-.411c.047-.247-.03-.416-.25-.458S398.974,64.227,398.927,64.474Z" transform="translate(-393.282 -61.825)" fill="#263238"/>
              </g>
              <g id="그룹_646" data-name="그룹 646" transform="translate(35.558 6.938)">
                <rect id="사각형_337" data-name="사각형 337" width="0.788" height="1.971" transform="translate(0.37 0.551) rotate(10.807)" fill="#263238"/>
                <rect id="사각형_338" data-name="사각형 338" width="0.788" height="2.366" transform="translate(1.476 0.36) rotate(10.802)" fill="#263238"/>
                <rect id="사각형_339" data-name="사각형 339" width="0.788" height="2.646" transform="translate(2.561 0.282) rotate(10.802)" fill="#263238"/>
                <rect id="사각형_340" data-name="사각형 340" width="0.788" height="3.134" transform="matrix(0.982, 0.187, -0.187, 0.982, 3.685, 0)" fill="#263238"/>
                <g id="그룹_641" data-name="그룹 641" transform="translate(8.818 1.275)">
                  <g id="그룹_638" data-name="그룹 638">
                    <path id="패스_2116" data-name="패스 2116" d="M455.091,76.127l-4.646-.886.542-2.839,4.645.886Zm-4.338-1.1,4.129.788.443-2.323-4.13-.788Z" transform="translate(-450.445 -72.401)" fill="#263238"/>
                  </g>
                  <g id="그룹_639" data-name="그룹 639" transform="translate(0.748 0.662)">
                    <rect id="사각형_341" data-name="사각형 341" width="2.496" height="1.793" transform="translate(0.336 0) rotate(10.803)" fill="#263238"/>
                  </g>
                  <g id="그룹_640" data-name="그룹 640" transform="translate(4.692 1.941)">
                    <rect id="사각형_342" data-name="사각형 342" width="0.595" height="0.681" transform="translate(0.128 0) rotate(10.8)" fill="#263238"/>
                  </g>
                </g>
                <g id="그룹_642" data-name="그룹 642" transform="translate(5.29 2.329)">
                  <path id="패스_2117" data-name="패스 2117" d="M447.706,74.641a.175.175,0,0,1-.084-.041,1.378,1.378,0,0,0-1.593-.323.177.177,0,0,1-.179-.3,1.715,1.715,0,0,1,2.006.363.177.177,0,0,1-.151.306Z" transform="translate(-445.764 -73.799)" fill="#263238"/>
                </g>
                <g id="그룹_643" data-name="그룹 643" transform="translate(5.052 1.628)">
                  <path id="패스_2118" data-name="패스 2118" d="M448.089,73.9a.18.18,0,0,1-.084-.041,1.992,1.992,0,0,0-2.291-.457.177.177,0,1,1-.18-.3,2.352,2.352,0,0,1,2.705.5.177.177,0,0,1-.15.306Z" transform="translate(-445.447 -72.869)" fill="#263238"/>
                </g>
                <g id="그룹_644" data-name="그룹 644" transform="translate(4.863 0.841)">
                  <path id="패스_2119" data-name="패스 2119" d="M448.474,73.024a.176.176,0,0,1-.084-.042,2.519,2.519,0,0,0-2.927-.577.177.177,0,0,1-.179-.3,2.9,2.9,0,0,1,3.341.618.177.177,0,0,1-.151.305Z" transform="translate(-445.197 -71.825)" fill="#263238"/>
                </g>
                <g id="그룹_645" data-name="그룹 645" transform="translate(5.776 2.837)">
                  <path id="패스_2120" data-name="패스 2120" d="M447.288,75a.443.443,0,1,1-.353-.519A.443.443,0,0,1,447.288,75Z" transform="translate(-446.409 -74.472)" fill="#263238"/>
                </g>
              </g>
            </g>
          </g>
        </g>
        <rect id="사각형_343" data-name="사각형 343" width="49.687" height="42.998" rx="5.338" transform="translate(23.615 44.247) rotate(10.804)" fill="#fff" stroke="#263238" stroke-miterlimit="10" stroke-width="1"/>
        <line id="선_37" data-name="선 37" x2="38.481" y2="7.343" transform="translate(19.395 96.943)" fill="none" stroke="#263238" stroke-miterlimit="10" stroke-width="1"/>
        <line id="선_38" data-name="선 38" x2="38.481" y2="7.343" transform="translate(17.963 104.452)" fill="none" stroke="#263238" stroke-miterlimit="10" stroke-width="1"/>
        <text id="주문_완료" data-name="주문
완료" transform="translate(33.233 66.45) rotate(11)" fill="#222" font-size="13" font-family="AppleSDGothicNeo-Medium, Apple SD Gothic Neo" font-weight="500" letter-spacing="-0.05em"><tspan x="0" y="0">주문</tspan><tspan y="0" font-family="NotoSans-Medium, Noto Sans"></tspan><tspan x="0" y="13">완료</tspan></text>
      </g>
      <g id="그룹_653" data-name="그룹 653" transform="translate(77.5 69.222)">
        <line id="선_39" data-name="선 39" y1="1.432" x2="9.309" transform="translate(4.296)" fill="none" stroke="#263238" stroke-miterlimit="10" stroke-width="1"/>
        <line id="선_40" data-name="선 40" x2="5.012" y2="1.432" transform="translate(2.864 12.173)" fill="none" stroke="#263238" stroke-miterlimit="10" stroke-width="1"/>
        <line id="선_41" data-name="선 41" x2="9.309" y2="6.445" transform="translate(0 21.482)" fill="none" stroke="#263238" stroke-miterlimit="10" stroke-width="1"/>
      </g>
    </g>
  </g>
</svg>
