<svg height="24" width="24" xmlns="http://www.w3.org/2000/svg"><path d="m0 0h24v24h-24z" fill="none"/><path d="m266.944 263.851a.859.859 0 1 0 -1.682.351.9.9 0 0 1 -.182.752.873.873 0 0 1 -.688.327h-16.784a.876.876 0 0 1 -.688-.327.9.9 0 0 1 -.182-.752 9.5 9.5 0 0 1 9.034-7.519h.457a9.458 9.458 0 0 1 7.635 4.2.859.859 0 1 0 1.427-.957 11.172 11.172 0 0 0 -5.792-4.4 5.844 5.844 0 1 0 -6.995 0 11.175 11.175 0 0 0 -7.448 8.327 2.61 2.61 0 0 0 2.552 3.147h16.784a2.61 2.61 0 0 0 2.552-3.149zm-15.069-13.007a4.125 4.125 0 1 1 4.334 4.12h-.417a4.131 4.131 0 0 1 -3.917-4.12z" fill="#222" transform="translate(-244 -244)"/></svg>