<svg xmlns="http://www.w3.org/2000/svg" width="326.21" height="291.532" viewBox="0 0 326.21 291.532">
  <g id="img_visual" transform="translate(-57.731 -69.45)">
    <g id="Background_Simple" data-name="Background Simple" transform="translate(57.731 69.45)">
      <g id="그룹_633" data-name="그룹 633" transform="translate(0 0)">
        <path id="패스_2102" data-name="패스 2102" d="M317.093,181.021c-6.967,26.014-23.512,55.033-49.684,65.663C227.864,262.75,226.143,296.055,152.938,300a147.652,147.652,0,0,1-31.971-1.606,122.836,122.836,0,0,1-15.3-3.514c-44.248-13.183-70.1-49.055-75.753-88.639-7.439-52.061,26.636-80.481,48.936-97.347s45.447-76.155,117.382-80.6A143.1,143.1,0,0,1,229.1,29.927c24.752,4.222,50.661,16.325,66.934,36.089q1.833,2.227,3.534,4.573C321.735,101.145,326.593,145.555,317.093,181.021Z" transform="translate(-28.875 -28)" fill="#92e3a9"/>
        <path id="패스_2103" data-name="패스 2103" d="M317.093,181.021c-6.967,26.014-23.512,55.033-49.684,65.663C227.864,262.75,226.143,296.055,152.938,300a147.652,147.652,0,0,1-31.971-1.606,122.836,122.836,0,0,1-15.3-3.514c-44.248-13.183-70.1-49.055-75.753-88.639-7.439-52.061,26.636-80.481,48.936-97.347s45.447-76.155,117.382-80.6A143.1,143.1,0,0,1,229.1,29.927c24.752,4.222,50.661,16.325,66.934,36.089q1.833,2.227,3.534,4.573C321.735,101.145,326.593,145.555,317.093,181.021Z" transform="translate(-28.875 -28)" fill="#dfe9f8"/>
      </g>
    </g>
    <g id="Device_2" data-name="Device 2" transform="translate(189.14 94.132)">
      <g id="그룹_654" data-name="그룹 654" transform="translate(0 0)">
        <g id="그룹_652" data-name="그룹 652">
          <g id="그룹_649" data-name="그룹 649">
            <path id="패스_2106" data-name="패스 2106" d="M429.806,66.6l-17.259-3.293-.03.059c-.861,1.742-2.266,2.711-3.568,2.462l-.749-.142c-1.3-.249-2.251-1.667-2.41-3.6l-.005-.066-17.259-3.294a8.861,8.861,0,0,0-10.365,7.043L355.773,179.358a5.085,5.085,0,0,0,4.042,5.947l48.7,9.293a5.083,5.083,0,0,0,5.947-4.041L436.849,76.967A8.861,8.861,0,0,0,429.806,66.6Z" transform="translate(-352.633 -56.054)" fill="#a4bde8" stroke="#263238" stroke-linecap="round" stroke-linejoin="round" stroke-width="1"/>
            <path id="패스_2107" data-name="패스 2107" d="M443.553,79.5l.484-2.536A8.861,8.861,0,0,0,436.994,66.6l-17.259-3.293-.03.059c-.861,1.742-2.266,2.711-3.568,2.462l-.749-.142c-1.3-.249-2.251-1.667-2.41-3.6l-.005-.066-17.259-3.294a8.861,8.861,0,0,0-10.365,7.043l-.484,2.536Z" transform="translate(-359.82 -56.054)" fill="#fff" stroke="#263238" stroke-linecap="round" stroke-linejoin="round" stroke-width="1"/>
            <g id="그룹_636" data-name="그룹 636">
              <g id="그룹_635" data-name="그룹 635">
                <path id="패스_2108" data-name="패스 2108" d="M431.586,115.056l2.105-11.029-1-.191,6.275-29.157a8.861,8.861,0,0,0-7.043-10.365l-46.752-8.922a8.861,8.861,0,0,0-10.365,7.043L351.795,179.309a8.861,8.861,0,0,0,7.043,10.364l46.752,8.922a8.86,8.86,0,0,0,10.365-7.043l12.841-67.286,1,.19,1.244-6.517-1-.191.55-2.882Zm-17.181,69.757a8.861,8.861,0,0,1-10.364,7.043l-41.281-7.878a8.861,8.861,0,0,1-7.043-10.364L377.164,64.947A8.861,8.861,0,0,1,387.529,57.9L404.788,61.2l.005.066c.16,1.936,1.108,3.355,2.41,3.6l.749.142c1.3.249,2.707-.72,3.568-2.462l.03-.059,17.259,3.293a8.861,8.861,0,0,1,7.043,10.365Z" transform="translate(-351.636 -55.233)" fill="#707070" stroke="#263238" stroke-linecap="round" stroke-linejoin="round" stroke-width="1"/>
                <path id="패스_2109" data-name="패스 2109" d="M430.6,65.706l-43.7-8.34a9.388,9.388,0,0,0-10.981,7.462L353.563,178.269a9.388,9.388,0,0,0,7.462,10.981l43.7,8.34a9.387,9.387,0,0,0,10.981-7.462L438.066,76.687A9.388,9.388,0,0,0,430.6,65.706ZM414.838,185.3a8.86,8.86,0,0,1-10.364,7.043l-41.282-7.878A8.861,8.861,0,0,1,356.15,174.1L377.6,65.431a8.861,8.861,0,0,1,10.365-7.043l17.259,3.294,0,.066c.16,1.936,1.108,3.355,2.411,3.6l.749.142c1.3.249,2.706-.721,3.568-2.462l.03-.059,17.259,3.293a8.861,8.861,0,0,1,7.043,10.365Z" transform="translate(-352.07 -55.717)" fill="#263238" stroke="#263238" stroke-linecap="round" stroke-linejoin="round" stroke-width="1"/>
              </g>
              <path id="패스_2110" data-name="패스 2110" d="M426.845,64.394a.832.832,0,1,0-.973.662A.833.833,0,0,0,426.845,64.394Z" transform="translate(-369.753 -57.246)" fill="#707070"/>
            </g>
            <g id="그룹_648" data-name="그룹 648" transform="translate(30.097 4.726)">
              <g id="그룹_647" data-name="그룹 647">
                <g id="그룹_637" data-name="그룹 637">
                  <path id="패스_2111" data-name="패스 2111" d="M393.2,62.331c-.157.827-1.143.947-1.267,1.578l-.008.043.9.172-.053.278-1.2-.229.045-.235c.169-.886,1.131-.88,1.278-1.653.053-.282-.012-.448-.239-.491s-.352.1-.4.341l-.046.243-.286-.055.042-.223c.08-.419.325-.661.748-.58S393.278,61.912,393.2,62.331Z" transform="translate(-391.568 -61.504)" fill="#263238"/>
                  <path id="패스_2112" data-name="패스 2112" d="M395.226,62.707l-.014.071a.556.556,0,0,1-.441.5.555.555,0,0,1,.224.632l-.041.212c-.08.419-.328.656-.75.575s-.563-.392-.483-.811l.036-.188.286.054L394,63.96c-.047.247.026.415.246.458s.349-.084.4-.362l.041-.212c.051-.271-.038-.421-.267-.473l-.165-.031.053-.274.18.034a.335.335,0,0,0,.4-.313l.023-.126c.054-.282-.017-.445-.24-.488s-.35.091-.4.338l-.027.141-.286-.054.023-.125c.081-.419.328-.653.747-.573A.6.6,0,0,1,395.226,62.707Z" transform="translate(-392.093 -61.598)" fill="#263238"/>
                  <path id="패스_2113" data-name="패스 2113" d="M396.244,63.383l-.073.38-.294-.057.073-.38Zm-.285,1.492-.073.38-.293-.056.072-.381Z" transform="translate(-392.559 -61.953)" fill="#263238"/>
                  <path id="패스_2114" data-name="패스 2114" d="M397.045,63.507a.449.449,0,0,1,.451-.149c.353.067.46.355.385.747l-.1.537c-.081.42-.332.656-.751.576s-.563-.392-.482-.811l.035-.184.286.054-.038.2c-.047.247.026.415.246.458s.35-.088.4-.335l.1-.533c.047-.246-.026-.415-.246-.457a.3.3,0,0,0-.366.234l-.012.062-.286-.054.366-1.51,1.081.206-.052.274-.807-.154Z" transform="translate(-392.789 -61.712)" fill="#263238"/>
                  <path id="패스_2115" data-name="패스 2115" d="M400.067,63.628l-.009.051-.286-.054.013-.071c.048-.246-.027-.411-.25-.454s-.362.085-.417.379l-.118.615a.451.451,0,0,1,.5-.21c.353.068.46.352.385.748l-.079.415a.643.643,0,1,1-1.258-.24l.267-1.4c.083-.435.331-.668.766-.585A.6.6,0,0,1,400.067,63.628Zm-1.14.846-.078.411c-.048.247.026.415.249.458s.353-.087.4-.334l.079-.411c.047-.247-.03-.416-.25-.458S398.974,64.227,398.927,64.474Z" transform="translate(-393.282 -61.825)" fill="#263238"/>
                </g>
                <g id="그룹_646" data-name="그룹 646" transform="translate(35.558 6.938)">
                  <rect id="사각형_337" data-name="사각형 337" width="0.788" height="1.971" transform="translate(0.37 0.551) rotate(10.807)" fill="#263238"/>
                  <rect id="사각형_338" data-name="사각형 338" width="0.788" height="2.366" transform="translate(1.476 0.36) rotate(10.802)" fill="#263238"/>
                  <rect id="사각형_339" data-name="사각형 339" width="0.788" height="2.646" transform="translate(2.561 0.282) rotate(10.802)" fill="#263238"/>
                  <rect id="사각형_340" data-name="사각형 340" width="0.788" height="3.134" transform="matrix(0.982, 0.187, -0.187, 0.982, 3.685, 0)" fill="#263238"/>
                  <g id="그룹_641" data-name="그룹 641" transform="translate(8.818 1.275)">
                    <g id="그룹_638" data-name="그룹 638">
                      <path id="패스_2116" data-name="패스 2116" d="M455.091,76.127l-4.646-.886.542-2.839,4.645.886Zm-4.338-1.1,4.129.788.443-2.323-4.13-.788Z" transform="translate(-450.445 -72.401)" fill="#263238"/>
                    </g>
                    <g id="그룹_639" data-name="그룹 639" transform="translate(0.748 0.662)">
                      <rect id="사각형_341" data-name="사각형 341" width="2.496" height="1.793" transform="translate(0.336 0) rotate(10.803)" fill="#263238"/>
                    </g>
                    <g id="그룹_640" data-name="그룹 640" transform="translate(4.692 1.941)">
                      <rect id="사각형_342" data-name="사각형 342" width="0.595" height="0.681" transform="translate(0.128 0) rotate(10.8)" fill="#263238"/>
                    </g>
                  </g>
                  <g id="그룹_642" data-name="그룹 642" transform="translate(5.29 2.329)">
                    <path id="패스_2117" data-name="패스 2117" d="M447.706,74.641a.175.175,0,0,1-.084-.041,1.378,1.378,0,0,0-1.593-.323.177.177,0,0,1-.179-.3,1.715,1.715,0,0,1,2.006.363.177.177,0,0,1-.151.306Z" transform="translate(-445.764 -73.799)" fill="#263238"/>
                  </g>
                  <g id="그룹_643" data-name="그룹 643" transform="translate(5.052 1.628)">
                    <path id="패스_2118" data-name="패스 2118" d="M448.089,73.9a.18.18,0,0,1-.084-.041,1.992,1.992,0,0,0-2.291-.457.177.177,0,1,1-.18-.3,2.352,2.352,0,0,1,2.705.5.177.177,0,0,1-.15.306Z" transform="translate(-445.447 -72.869)" fill="#263238"/>
                  </g>
                  <g id="그룹_644" data-name="그룹 644" transform="translate(4.863 0.841)">
                    <path id="패스_2119" data-name="패스 2119" d="M448.474,73.024a.176.176,0,0,1-.084-.042,2.519,2.519,0,0,0-2.927-.577.177.177,0,0,1-.179-.3,2.9,2.9,0,0,1,3.341.618.177.177,0,0,1-.151.305Z" transform="translate(-445.197 -71.825)" fill="#263238"/>
                  </g>
                  <g id="그룹_645" data-name="그룹 645" transform="translate(5.776 2.837)">
                    <path id="패스_2120" data-name="패스 2120" d="M447.288,75a.443.443,0,1,1-.353-.519A.443.443,0,0,1,447.288,75Z" transform="translate(-446.409 -74.472)" fill="#263238"/>
                  </g>
                </g>
              </g>
            </g>
          </g>
          <rect id="사각형_343" data-name="사각형 343" width="49.687" height="42.998" rx="5.338" transform="translate(23.615 44.247) rotate(10.804)" fill="#fff" stroke="#263238" stroke-miterlimit="10" stroke-width="1"/>
          <line id="선_37" data-name="선 37" x2="38.481" y2="7.343" transform="translate(19.395 96.943)" fill="none" stroke="#263238" stroke-miterlimit="10" stroke-width="1"/>
          <line id="선_38" data-name="선 38" x2="38.481" y2="7.343" transform="translate(17.963 104.452)" fill="none" stroke="#263238" stroke-miterlimit="10" stroke-width="1"/>
          <text id="주문_완료" data-name="주문
완료" transform="translate(33.233 66.45) rotate(11)" fill="#222" font-size="13" font-family="Noto Sans" font-weight="500" letter-spacing="-0.05em"><tspan x="0" y="0">주문</tspan><tspan y="0" font-family="NotoSans-Medium, Noto Sans"></tspan><tspan x="0" y="13">완료</tspan></text>
          <text id="아름드림_" data-name="아름드림
" transform="translate(36.69 38.898) rotate(11)" fill="#222" font-size="8" font-family="Noto Sans" font-weight="700" letter-spacing="-0.05em"><tspan x="0" y="0">아름드림</tspan><tspan y="0" font-family="NotoSans-Bold, Noto Sans"></tspan><tspan font-family="NotoSans-Bold, Noto Sans"><tspan x="0" y="40"></tspan></tspan></text>
        </g>
        <g id="그룹_653" data-name="그룹 653" transform="translate(77.5 69.222)">
          <line id="선_39" data-name="선 39" y1="1.432" x2="9.309" transform="translate(4.296)" fill="none" stroke="#263238" stroke-miterlimit="10" stroke-width="1"/>
          <line id="선_40" data-name="선 40" x2="5.012" y2="1.432" transform="translate(2.864 12.173)" fill="none" stroke="#263238" stroke-miterlimit="10" stroke-width="1"/>
          <line id="선_41" data-name="선 41" x2="9.309" y2="6.445" transform="translate(0 21.482)" fill="none" stroke="#263238" stroke-miterlimit="10" stroke-width="1"/>
        </g>
      </g>
    </g>
    <g id="Mug" transform="translate(177.553 268.009)">
      <g id="그룹_665" data-name="그룹 665">
        <g id="그룹_662" data-name="그룹 662">
          <ellipse id="타원_6" data-name="타원 6" cx="48.213" cy="45.306" rx="48.213" ry="45.306" transform="translate(1.012 2.36)" fill="#263238"/>
          <ellipse id="타원_7" data-name="타원 7" cx="48.213" cy="45.306" rx="48.213" ry="45.306" fill="#fff" stroke="#263238" stroke-miterlimit="10" stroke-width="1"/>
          <ellipse id="타원_8" data-name="타원 8" cx="41.616" cy="39.107" rx="41.616" ry="39.107" transform="translate(6.597 6.2)" fill="#fff" stroke="#263238" stroke-miterlimit="10" stroke-width="1"/>
        </g>
        <path id="패스_2161" data-name="패스 2161" d="M241.027,385.535c-16.7,0-30.243,17.015-30.243,38,0,13.54,5.64,25.418,14.124,32.149,1.4.118,2.817.188,4.252.188,17.556,0,32.869-8.988,41.043-22.328a47.227,47.227,0,0,0,1.068-10.009C271.27,402.55,257.73,385.535,241.027,385.535Z" transform="translate(-181.285 -366.56)" fill="#263238"/>
        <g id="그룹_663" data-name="그룹 663" transform="translate(10.159 13.712)">
          <rect id="사각형_353" data-name="사각형 353" width="19.698" height="4.712" transform="translate(0 26.129)" fill="#fff" stroke="#263238" stroke-miterlimit="10" stroke-width="1"/>
          <ellipse id="타원_9" data-name="타원 9" cx="30.039" cy="28.228" rx="30.039" ry="28.228" transform="translate(14.96)" fill="#fff" stroke="#263238" stroke-miterlimit="10" stroke-width="1"/>
          <ellipse id="타원_10" data-name="타원 10" cx="25.078" cy="23.566" rx="25.078" ry="23.566" transform="translate(19.921 4.662)" fill="#263238" stroke="#263238" stroke-miterlimit="10" stroke-width="1"/>
        </g>
        <g id="그룹_664" data-name="그룹 664" transform="translate(42.254 3.806)">
          <path id="패스_2162" data-name="패스 2162" d="M230.1,381.933a9.463,9.463,0,0,0-.56-1.151c-2.557-4.45-2.237-10.114-.319-15.373" transform="translate(-227.707 -365.409)" fill="none" stroke="#263238" stroke-miterlimit="10" stroke-width="1"/>
          <path id="패스_2163" data-name="패스 2163" d="M231.287,396.7s1.342-5.091-.4-9.367" transform="translate(-228.49 -370.808)" fill="none" stroke="#fff" stroke-miterlimit="10" stroke-width="1"/>
          <path id="패스_2164" data-name="패스 2164" d="M242.691,380.782c-2.557-4.45-2.238-10.114-.32-15.373" transform="translate(-230.945 -365.409)" fill="none" stroke="#263238" stroke-miterlimit="10" stroke-width="1"/>
          <path id="패스_2165" data-name="패스 2165" d="M244.251,396.323s1.6-6.068-.959-10.518" transform="translate(-231.545 -370.432)" fill="none" stroke="#fff" stroke-miterlimit="10" stroke-width="1"/>
          <path id="패스_2166" data-name="패스 2166" d="M256.153,381.381q-.146-.3-.315-.6c-2.558-4.45-2.238-10.114-.32-15.373" transform="translate(-234.182 -365.409)" fill="none" stroke="#263238" stroke-miterlimit="10" stroke-width="1"/>
          <path id="패스_2167" data-name="패스 2167" d="M257.5,396.519s1.46-5.544-.644-9.919" transform="translate(-234.886 -370.628)" fill="none" stroke="#fff" stroke-miterlimit="10" stroke-width="1"/>
        </g>
      </g>
    </g>
    <g id="Right_Hand" data-name="Right Hand" transform="translate(234.693 172.882)">
      <g id="그룹_670" data-name="그룹 670" transform="translate(0 0)">
        <path id="패스_2168" data-name="패스 2168" d="M350.591,331.164s-.784.043-2.189.2c-1.331-4.518-5.322-17.893-7.943-24.8-3.185-8.4-7.527-20.266-10.422-25.187s-2.606-7.817-8.106-12.449-10.422-2.606-10.422-2.606-.868-3.474-6.369-5.211-13.028,1.737-13.028,1.737-1.158-2.027-6.658-1.448a9.577,9.577,0,0,0-7.527,5.5s-11.291-22.581-15.634-24.318-8.685,2.606-6.948,6.659,14.764,26.635,16.5,31.845,5.5,13.9,5.5,13.9S264.9,286,261.135,285.133s-9.264-1.448-12.449,2.027,4.343,4.342,10.422,9.843,15.923,18.239,20.555,26.345,14.475,9.553,18.818,14.185c3.056,3.261,7.4,7.809,9.707,10.218a26.246,26.246,0,0,0-2.181,2.52l9.554,23.449s2.026-3.184,10.132-9.553,33.293-14.186,33.293-14.186Z" transform="translate(-247.574 -236.126)" fill="#263238" stroke="#263238" stroke-miterlimit="10" stroke-width="1"/>
        <g id="그룹_669" data-name="그룹 669">
          <g id="그룹_667" data-name="그룹 667">
            <g id="그룹_666" data-name="그룹 666">
              <path id="패스_2169" data-name="패스 2169" d="M309.3,341.368s-6.948-7.237-11.29-11.87-14.185-6.079-18.818-14.185-14.475-20.845-20.555-26.345-13.606-6.369-10.421-9.843,8.685-2.9,12.448-2.026,16.212,9.843,16.212,9.843-3.763-8.685-5.5-13.9-14.765-27.792-16.5-31.845,2.606-8.4,6.948-6.659,15.633,24.318,15.633,24.318a9.576,9.576,0,0,1,7.527-5.5c5.5-.579,6.659,1.448,6.659,1.448s7.527-3.475,13.027-1.737,6.37,5.211,6.37,5.211,4.921-2.026,10.421,2.606,5.211,7.527,8.106,12.448,7.238,16.791,10.422,25.187,8.4,26.344,8.4,26.344l-37.345,20.266Z" transform="translate(-247.458 -234.148)" fill="#fff" stroke="#263238" stroke-miterlimit="10" stroke-width="1"/>
              <line id="선_42" data-name="선 42" x2="10.133" y2="15.054" transform="translate(29.996 24.712)" fill="none" stroke="#263238" stroke-miterlimit="10" stroke-width="1"/>
              <line id="선_43" data-name="선 43" x2="9.264" y2="14.475" transform="translate(44.182 20.659)" fill="none" stroke="#263238" stroke-miterlimit="10" stroke-width="1"/>
              <line id="선_44" data-name="선 44" x2="6.369" y2="11.291" transform="translate(63.578 24.133)" fill="none" stroke="#263238" stroke-miterlimit="10" stroke-width="1"/>
              <line id="선_45" data-name="선 45" x2="1.324" y2="3.841" transform="translate(33.883 65.744)" fill="none" stroke="#263238" stroke-miterlimit="10" stroke-width="1"/>
              <line id="선_46" data-name="선 46" x2="3.545" y2="10.281" transform="translate(29.417 52.794)" fill="none" stroke="#263238" stroke-miterlimit="10" stroke-width="1"/>
            </g>
            <line id="선_47" data-name="선 47" x2="2.316" y2="3.185" transform="translate(45.629 43.24)" fill="none" stroke="#263238" stroke-miterlimit="10" stroke-width="1"/>
            <line id="선_48" data-name="선 48" x2="2.606" y2="3.474" transform="translate(56.341 40.055)" fill="none" stroke="#263238" stroke-miterlimit="10" stroke-width="1"/>
            <line id="선_49" data-name="선 49" x2="1.737" y2="5.501" transform="translate(70.526 38.318)" fill="none" stroke="#263238" stroke-miterlimit="10" stroke-width="1"/>
          </g>
          <g id="그룹_668" data-name="그룹 668" transform="translate(58.078 88.982)">
            <path id="패스_2170" data-name="패스 2170" d="M324.514,371.313s6.658-9.265,20.265-13.9a100.537,100.537,0,0,1,24.319-5.211l8.4,18.817s-25.187,7.817-33.293,14.186-10.133,9.553-10.133,9.553Z" transform="translate(-324.514 -352.206)" fill="#fff" stroke="#263238" stroke-miterlimit="10" stroke-width="1"/>
            <path id="패스_2171" data-name="패스 2171" d="M350.006,439.752s-11-27.5-13.9-33.293,1.737-8.685,1.737-8.685,6.659-8.975,24.029-15.923,18.818-7.237,23.16-2.316S417.861,439.8,417.861,439.8" transform="translate(-327.136 -358.113)" fill="#fff" stroke="#263238" stroke-miterlimit="10" stroke-width="1"/>
          </g>
        </g>
      </g>
    </g>
    <g id="Left_Hand" data-name="Left Hand" transform="translate(70.007 196.821)">
      <g id="그룹_674" data-name="그룹 674" transform="translate(0 0)">
        <path id="패스_2172" data-name="패스 2172" d="M104.529,384.745a31.475,31.475,0,0,1,13.307-13.219c9.372-4.781,15.462-6.839,24.43-15.683s23.749-16.746,29.843-17.835,8.117-3.711,5.491-6.7-9.791-3.156-16.172-1-12.275,4.792-12.275,4.792c3.23-6.362,5.382-14.025,8.563-20.412,2.257-4.532,5.965-12.01,8.159-16.573,1.432-2.978,5.7-7.937,3.8-11.19-1.911-3.273-6.473-1.1-8.787,2.014C157.215,293.881,139.223,321,139.223,321l10.253-21.7,6.936-14.684c1.516-3.208,4.465-7.5,2.665-11.2a5.322,5.322,0,0,0-9.3-.565c-2.5,4.076-21.621,40.262-21.621,40.262s11.968-31.06,13.5-34.629c1.868-4.36.765-8.159-1.992-8.137-4.005.031-5.9,4.466-7.469,7.483l.875-1.272c-3.745,4.994-6.264,11.555-9.4,16.973q-5.492,9.5-11.367,18.772c.77-6.4,3.338-12.4,6.521-17.948,1.92-3.349,9.914-11.573,8.549-15.616-1.176-3.48-9.944,3.06-15.043,10.2-2.78,3.891-10.064,14.5-12.067,21.963S84.23,343.778,80.483,350.861s-8.248,19.588-8.248,19.588Z" transform="translate(-39.616 -267.001)" fill="#263238" stroke="#263238" stroke-miterlimit="10" stroke-width="1"/>
        <path id="패스_2173" data-name="패스 2173" d="M111.981,407.74S104.764,398.9,90.9,395.12a100.529,100.529,0,0,0-24.594-3.7l-7.219,19.3s25.621,6.249,34.1,12.106,10.7,8.911,10.7,8.911Z" transform="translate(-36.377 -296.82)" fill="#263238" stroke="#263238" stroke-miterlimit="10" stroke-width="1"/>
        <g id="그룹_673" data-name="그룹 673">
          <g id="그룹_671" data-name="그룹 671" transform="translate(31.665)">
            <path id="패스_2174" data-name="패스 2174" d="M103.263,380.311a31.468,31.468,0,0,1,13.307-13.218c9.371-4.782,15.461-6.839,24.43-15.684s23.748-16.746,29.842-17.835,8.117-3.711,5.491-6.7-9.791-3.155-16.171-1-12.276,4.793-12.276,4.793c3.23-6.363,5.382-14.024,8.563-20.412,2.258-4.532,5.965-12.009,8.159-16.573,1.432-2.978,5.7-7.938,3.8-11.19-1.91-3.273-6.472-1.1-8.786,2.015-3.677,4.943-21.669,32.065-21.669,32.065q5.127-10.853,10.253-21.706c5.194-11,7.67-16.239,6.936-14.684,1.515-3.208,4.464-7.5,2.664-11.2a5.322,5.322,0,0,0-9.3-.564c-2.5,4.076-21.621,40.261-21.621,40.261s11.968-31.059,13.5-34.628c1.868-4.359.765-8.159-1.991-8.138-4.006.032-5.9,4.466-7.469,7.483l.875-1.272c-3.745,4.993-6.264,11.555-9.4,16.974q-5.491,9.5-11.367,18.771c.77-6.4,3.337-12.4,6.52-17.948,1.92-3.349,9.915-11.573,8.549-15.615-1.176-3.481-9.944,3.059-15.043,10.2C108.286,288.391,101,299,99,306.463s-16.036,32.882-19.783,39.964-8.247,19.588-8.247,19.588Z" transform="translate(-70.969 -265.909)" fill="#fff" stroke="#263238" stroke-miterlimit="10" stroke-width="1"/>
            <line id="선_50" data-name="선 50" x1="3.457" y2="6.984" transform="translate(52.463 42.766)" fill="none" stroke="#263238" stroke-miterlimit="10" stroke-width="1"/>
            <line id="선_51" data-name="선 51" x1="2.697" y2="3.496" transform="translate(64.291 50.66)" fill="none" stroke="#263238" stroke-miterlimit="10" stroke-width="1"/>
            <line id="선_52" data-name="선 52" x1="3.465" y2="5.048" transform="translate(73.453 64.755)" fill="none" stroke="#263238" stroke-miterlimit="10" stroke-width="1"/>
            <line id="선_53" data-name="선 53" x1="0.278" y2="3.002" transform="translate(58.717 61.438)" fill="none" stroke="#263238" stroke-miterlimit="10" stroke-width="1"/>
            <line id="선_54" data-name="선 54" x2="0.012" y2="2.904" transform="translate(50.358 55.955)" fill="none" stroke="#263238" stroke-miterlimit="10" stroke-width="1"/>
            <line id="선_55" data-name="선 55" x2="0.697" y2="4.934" transform="translate(37.652 49.906)" fill="none" stroke="#263238" stroke-miterlimit="10" stroke-width="1"/>
          </g>
          <g id="그룹_672" data-name="그룹 672" transform="translate(0 91.256)">
            <path id="패스_2175" data-name="패스 2175" d="M110.714,403.307s-7.217-8.837-21.084-12.62a100.545,100.545,0,0,0-24.593-3.7l-7.22,19.3s25.621,6.249,34.1,12.106,10.7,8.911,10.7,8.911Z" transform="translate(-36.065 -386.985)" fill="#fff" stroke="#263238" stroke-miterlimit="10" stroke-width="1"/>
            <path id="패스_2176" data-name="패스 2176" d="M92.124,451.081s1.8-6.036,4.328-11.993-2.269-8.561-2.269-8.561-7.2-8.547-24.965-14.411-19.228-6.064-23.259-.884-17,36.311-17,36.311" transform="translate(-28.957 -393.028)" fill="#fff" stroke="#263238" stroke-miterlimit="10" stroke-width="1"/>
          </g>
        </g>
      </g>
    </g>
  </g>
</svg>
