<svg id="Ic_Setting02" xmlns="http://www.w3.org/2000/svg" width="24" height="24">
    <defs>
        <style>
            .cls-1{fill:#222}
        </style>
    </defs>
    <g id="그룹_572" data-name="그룹 572" transform="translate(2 1)">
        <path id="패스_1997" data-name="패스 1997" class="cls-1" d="M263.236 259.681a.86.86 0 0 0-.687 1 .861.861 0 0 1-.845 1.02H248.66a.861.861 0 0 1-.845-1.02 8.859 8.859 0 0 1 1.206-2.983 6.8 6.8 0 0 0 1.168-3.646v-1.289a5 5 0 0 1 4.911-4.984h.163a4.994 4.994 0 0 1 4.894 4.984v1.289a6.076 6.076 0 0 0 .864 3.073.859.859 0 1 0 1.512-.818 4.374 4.374 0 0 1-.657-2.255v-1.289a6.71 6.71 0 0 0-5.844-6.65v-1.253a.859.859 0 1 0-1.719 0v1.258a6.736 6.736 0 0 0-5.844 6.649v1.289a5.181 5.181 0 0 1-.941 2.792 10.462 10.462 0 0 0-1.4 3.52 2.58 2.58 0 0 0 2.535 3.055h3.953a2.578 2.578 0 0 0 5.156 0h3.928a2.58 2.58 0 0 0 2.535-3.055.86.86 0 0 0-.999-.687zm-8.046 4.6a.86.86 0 0 1-.859-.859h1.719a.861.861 0 0 1-.86.859z" transform="translate(-245.032 -244)"/>
        <path id="패스_1998" data-name="패스 1998" class="cls-1" d="M246.656 252.922a8.408 8.408 0 0 1 2.146-5.615.86.86 0 0 0-1.281-1.147 10.122 10.122 0 0 0-2.584 6.761.859.859 0 0 0 1.719 0z" transform="translate(-244.937 -244.156)"/>
        <path id="패스_1999" data-name="패스 1999" class="cls-1" d="M264.108 246.161a.86.86 0 0 0-1.281 1.147 8.407 8.407 0 0 1 2.145 5.615.859.859 0 0 0 1.719 0 10.121 10.121 0 0 0-2.583-6.762z" transform="translate(-246.41 -244.156)"/>
    </g>
    <path id="사각형_318" data-name="사각형 318" style="fill:none" d="M0 0h24v24H0z"/>
</svg>
