<svg xmlns="http://www.w3.org/2000/svg" width="60" height="53.322">
    <defs>
    </defs>
    <g id="Ic_EmptyMenu" transform="translate(-267 -394.862)">
        <path id="패스_2096" data-name="패스 2096" class="cls-1" d="M314.825 400.993a5.659 5.659 0 0 0-5.281-3.644h-4.681a.879.879 0 1 0 0 1.758h4.681a3.9 3.9 0 0 1 3.893 3.893v18.4a17.1 17.1 0 0 1-10.717 15.865h-23.246a17.13 17.13 0 0 1-6.978-5.2.879.879 0 0 0-1.374 1.1 18.912 18.912 0 0 0 4.543 4.1h-5.3a2.782 2.782 0 0 0-2.686 3.508 10.048 10.048 0 0 0 9.683 7.414h27.47a10.049 10.049 0 0 0 9.683-7.414 2.781 2.781 0 0 0-2.686-3.508h-5.3a18.845 18.845 0 0 0 7.056-8.253l5.045-2.078a13.511 13.511 0 0 0-3.81-25.938zm-2.007 39.319a8.287 8.287 0 0 1-7.986 6.115h-27.47a8.288 8.288 0 0 1-7.986-6.115 1.024 1.024 0 0 1 .989-1.292h41.464a1.024 1.024 0 0 1 .989 1.292zM315.2 409.8a4.941 4.941 0 0 1 .176 9.207l-.176.073zm2.77 15.505-3.55 1.462a19.341 19.341 0 0 0 .78-5.786l.845-.348a6.7 6.7 0 0 0-.845-12.675v-5.15a11.755 11.755 0 0 1 2.774 22.5zm0 0"/>
        <path id="패스_2097" data-name="패스 2097" class="cls-1" d="M270.317 430.481a.881.881 0 0 0 .374-1.186 17.168 17.168 0 0 1-1.933-7.9V403a3.9 3.9 0 0 1 3.893-3.892h5.982v5.225h-.08a4.153 4.153 0 0 0-4.149 4.149v6.893a4.153 4.153 0 0 0 4.149 4.149h6.893a4.153 4.153 0 0 0 4.149-4.149v-6.893a4.153 4.153 0 0 0-4.149-4.149h-.081v-5.225h15.983a.879.879 0 0 0 0-1.758h-16.1a3.366 3.366 0 0 0-6.5 0h-6.1A5.657 5.657 0 0 0 267 403v18.4a18.938 18.938 0 0 0 2.131 8.709.88.88 0 0 0 1.186.375zm17.521-22v6.893a2.394 2.394 0 0 1-2.391 2.392h-6.894a2.4 2.4 0 0 1-2.392-2.392v-6.893a2.394 2.394 0 0 1 2.392-2.391h.1c.423 3.913 6.255 4.057 6.693 0h.1a2.394 2.394 0 0 1 2.392 2.391zm-7.447-10.253a1.609 1.609 0 1 1 3.217 0v7.5a1.608 1.608 0 1 1-3.216 0v-7.5zm0 0"/>
        <path id="패스_2034" data-name="패스 2034" class="cls-1" d="M287.9 429.864a.88.88 0 0 1-.879-.879v-1.407a.879.879 0 0 1 1.758 0v1.407a.879.879 0 0 1-.879.879zm0 0" transform="translate(-6.028 -3.028)"/>
        <path id="패스_2035" data-name="패스 2035" class="cls-1" d="M297.125 433.283a3.042 3.042 0 1 1 2.8-3.033 2.928 2.928 0 0 1-2.8 3.033zm0-4.307a1.3 1.3 0 1 0 1.045 1.274 1.178 1.178 0 0 0-1.045-1.274zm0 0" transform="translate(-6.028 -3.028)"/>
        <path id="패스_2036" data-name="패스 2036" class="cls-1" d="M306.345 429.864a.879.879 0 0 1-.879-.879v-1.407a.879.879 0 0 1 1.758 0v1.407a.88.88 0 0 1-.879.879zm0 0" transform="translate(-6.028 -3.028)"/>
    </g>
</svg>
