<svg xmlns="http://www.w3.org/2000/svg" width="50.976" height="60" viewBox="0 0 50.976 60">
    <defs>
       
    </defs>
    <g id="ic_EmptyFavStore" transform="translate(-271.637 -391.89)">
        <path id="패스_2034" d="M287.9 429.864a.88.88 0 0 1-.879-.879v-1.407a.879.879 0 0 1 1.758 0v1.407a.879.879 0 0 1-.879.879zm0 0" class="cls-1"/>
        <path id="패스_2035" d="M297.125 433.283a3.042 3.042 0 1 1 2.8-3.033 2.928 2.928 0 0 1-2.8 3.033zm0-4.307a1.3 1.3 0 1 0 1.045 1.274 1.178 1.178 0 0 0-1.045-1.274zm0 0" class="cls-1"/>
        <path id="패스_2036" d="M306.345 429.864a.879.879 0 0 1-.879-.879v-1.407a.879.879 0 0 1 1.758 0v1.407a.88.88 0 0 1-.879.879zm0 0" class="cls-1"/>
        <path id="패스_2037" d="M322.613 408a4.4 4.4 0 0 0-4.394-4.394h-3.273l-1.219-3.656a3.216 3.216 0 0 0-3-2.2l-1.22-3.659a3.218 3.218 0 0 0-3.057-2.2h-7.168a3.219 3.219 0 0 0-3.057 2.2l-1.219 3.656H283.58a3.219 3.219 0 0 0-3.057 2.2l-1.219 3.656h-3.273a4.394 4.394 0 0 0-.611 8.746 4.39 4.39 0 0 0 2.8 5.7l.242 3.331a3.22 3.22 0 0 0-2.114 3.26l1.022 14.115a3.237 3.237 0 0 0 2.561 2.922l.129 1.766a3.237 3.237 0 0 0 2.292 2.854 4.4 4.4 0 0 0 4.229 5.591h21.094a4.395 4.395 0 0 0 4.225-5.588 3.237 3.237 0 0 0 2.294-2.854l.128-1.766a3.237 3.237 0 0 0 2.561-2.922l1.022-14.115a3.22 3.22 0 0 0-2.114-3.26l.241-3.331a4.39 4.39 0 0 0 2.8-5.7 4.4 4.4 0 0 0 3.781-4.352zm-40.423-7.494a1.464 1.464 0 0 1 1.39-1h19.684a.879.879 0 1 0 0-1.758h-6.4l1.033-3.1a1.465 1.465 0 0 1 1.39-1h7.168a1.464 1.464 0 0 1 1.39 1l1.033 3.1h-2.098a.879.879 0 0 0 0 1.758h3.89a1.464 1.464 0 0 1 1.39 1l1.033 3.1h-31.936zm-1.983 20.678l-.212-2.93h34.26l-.212 2.93zm27.465 28.945h-21.094a2.636 2.636 0 0 1-2.414-3.7h25.922a2.636 2.636 0 0 1-2.414 3.7zm8.48-25.617l-1.022 14.118a1.469 1.469 0 0 1-1.461 1.359h-14.786a.879.879 0 0 0 0 1.758h13.671l-.113 1.571a1.471 1.471 0 0 1-1.462 1.359h-27.708a1.471 1.471 0 0 1-1.462-1.359l-.113-1.571h13.671a.879.879 0 0 0 0-1.758h-14.786a1.469 1.469 0 0 1-1.461-1.359l-1.02-14.115a1.465 1.465 0 0 1 1.461-1.57h35.132a1.465 1.465 0 0 1 1.461 1.57zM314.7 416.5h-35.153a2.633 2.633 0 0 1-2.19-4.1h39.536a2.633 2.633 0 0 1-2.19 4.1zm3.516-5.859h-42.185a2.637 2.637 0 0 1 0-5.273h42.188a2.637 2.637 0 0 1 0 5.273zm0 0" class="cls-1"/>
    </g>
</svg>
