<svg id="Ic_Cold" xmlns="http://www.w3.org/2000/svg" width="16" height="16" viewBox="0 0 16 16">
  <path id="패스_1905" data-name="패스 1905" d="M254.231,257.656a.6.6,0,1,1-.847.844l-.772-.775v.981a.6.6,0,0,1-1.2,0v-1l-.805.8a.6.6,0,0,1-.84-.851l1.645-1.623v-3.343l-2.866,1.7-.592,2.23a.6.6,0,0,1-.577.445.607.607,0,0,1-.154-.02.6.6,0,0,1-.425-.731c.066-.248.172-.647.279-1.052l-.833.494a.6.6,0,0,1-.61-1.028l.849-.5-1.084-.287a.6.6,0,0,1,.306-1.155l2.22.587,2.91-1.727-2.891-1.707-2.247.567a.583.583,0,0,1-.147.018.6.6,0,0,1-.146-1.178l1.076-.272-.875-.517a.6.6,0,1,1,.608-1.029l.863.51-.281-1.069a.6.6,0,0,1,1.157-.3l.585,2.236,2.871,1.7v-3.316l-1.645-1.623a.6.6,0,1,1,.84-.851l.805.795v-1a.6.6,0,1,1,1.2,0v1l.806-.8a.6.6,0,0,1,.84.851l-1.646,1.623v3.313l2.872-1.7.554-2.19a.6.6,0,1,1,1.159.293c-.062.245-.161.637-.263,1.036l.845-.5a.6.6,0,0,1,.61,1.028l-.889.528,1.1.294a.6.6,0,0,1-.154,1.175.587.587,0,0,1-.155-.02l-2.224-.6-3.45,2.047v4.056l.722.724Zm4.056-4.878-2.178.583-1.519-.9a.6.6,0,1,0-.608,1.029l1.492.881.595,2.271a.6.6,0,0,0,.578.446.621.621,0,0,0,.152-.019.6.6,0,0,0,.427-.73c-.068-.259-.179-.681-.289-1.1l.872.515a.589.589,0,0,0,.3.084.6.6,0,0,0,.3-1.113l-.865-.511,1.044-.28a.6.6,0,1,0-.309-1.155Z" transform="translate(-243.96 -244)" fill="#00276b"/>
  <rect id="사각형_279" data-name="사각형 279" width="16" height="16" fill="none"/>
</svg>
