<svg id="Ic_Card" xmlns="http://www.w3.org/2000/svg" xmlns:xlink="http://www.w3.org/1999/xlink" width="40" height="40" viewBox="0 0 40 40">
  <defs>
    <clipPath id="clip-path">
      <rect id="사각형_332" data-name="사각형 332" width="32" height="32" fill="#00276b"/>
    </clipPath>
  </defs>
  <g id="그룹_614" data-name="그룹 614" transform="translate(-273 -397.89)">
    <g id="그룹_613" data-name="그룹 613" transform="translate(277 401.89)">
      <g id="그룹_612" data-name="그룹 612" clip-path="url(#clip-path)">
        <path id="패스_2065" data-name="패스 2065" d="M280.409,424.169l1.92,1.92v5.134A2.669,2.669,0,0,0,285,433.89h21.338A2.669,2.669,0,0,0,309,431.224V417.89a5.674,5.674,0,0,1-2.935-5.785l-6.791-6.8,0-.006h0l-2.63-2.634a2.668,2.668,0,0,0-3.768,0l-15.089,15.1a2.685,2.685,0,0,0,0,3.777Zm16.223-19.994,1.506,1.508-9.535,9.541h-3.017Zm-14.3,17.318-1.547,1.546-1.507-1.507,3.054-3.056Zm-.793,2.3.793-.793v1.586Zm26.393-5.9v13.334a1.6,1.6,0,0,1-1.6,1.6H285a1.6,1.6,0,0,1-1.6-1.6V417.89a1.6,1.6,0,0,1,1.6-1.6h21.334a1.6,1.6,0,0,1,1.6,1.6Zm-2.622-2.766-.1.1h-15.1l8.782-8.786,6.417,6.42a1.61,1.61,0,0,1,0,2.266Zm-26.777,3.394,15.088-15.093a1.636,1.636,0,0,1,2.258,0l-12.119,12.122a2.66,2.66,0,0,0-1.107,1.106l-4.127,4.127a1.614,1.614,0,0,1,.008-2.26Zm0,0" transform="translate(-277.001 -401.89)" fill="#00276b"/>
      </g>
    </g>
    <path id="패스_2066" data-name="패스 2066" d="M287.4,426.156h3.2a1.067,1.067,0,0,0,1.066-1.066v-2.134a1.067,1.067,0,0,0-1.066-1.066h-3.2a1.066,1.066,0,0,0-1.066,1.066v2.134a1.066,1.066,0,0,0,1.066,1.066Zm0-3.2h3.2v2.134h-3.2Zm0,0" transform="translate(-1.867 -4)" fill="#00276b"/>
    <path id="패스_2067" data-name="패스 2067" d="M286.867,430.691a.533.533,0,0,0,.533-.534V429.09a.533.533,0,0,0-1.066,0v1.067a.533.533,0,0,0,.533.534Zm0,0" transform="translate(-1.867 -5.333)" fill="#00276b"/>
    <path id="패스_2068" data-name="패스 2068" d="M289.534,428.557a.533.533,0,0,0-.534.533v1.067a.533.533,0,1,0,1.066,0V429.09a.533.533,0,0,0-.533-.533Zm0,0" transform="translate(-2.4 -5.333)" fill="#00276b"/>
    <path id="패스_2069" data-name="패스 2069" d="M291.667,429.09v1.067a.533.533,0,1,0,1.066,0V429.09a.533.533,0,0,0-1.066,0Zm0,0" transform="translate(-2.933 -5.333)" fill="#00276b"/>
    <path id="패스_2070" data-name="패스 2070" d="M294.867,428.557a.533.533,0,0,0-.534.533v1.067a.534.534,0,1,0,1.067,0V429.09a.533.533,0,0,0-.534-.533Zm0,0" transform="translate(-3.467 -5.333)" fill="#00276b"/>
    <path id="패스_2071" data-name="패스 2071" d="M297.533,430.691a.533.533,0,0,0,.534-.534V429.09a.533.533,0,0,0-1.066,0v1.067a.534.534,0,0,0,.533.534Zm0,0" transform="translate(-4 -5.333)" fill="#00276b"/>
    <path id="패스_2072" data-name="패스 2072" d="M302.867,428.557a.533.533,0,0,0-.534.533v1.067a.534.534,0,1,0,1.067,0V429.09a.533.533,0,0,0-.534-.533Zm0,0" transform="translate(-5.067 -5.333)" fill="#00276b"/>
    <path id="패스_2073" data-name="패스 2073" d="M305.534,428.557a.533.533,0,0,0-.534.533v1.067a.534.534,0,1,0,1.067,0V429.09a.533.533,0,0,0-.534-.533Zm0,0" transform="translate(-5.6 -5.333)" fill="#00276b"/>
    <path id="패스_2074" data-name="패스 2074" d="M308.2,428.557a.533.533,0,0,0-.534.533v1.067a.534.534,0,1,0,1.067,0V429.09a.533.533,0,0,0-.534-.533Zm0,0" transform="translate(-6.133 -5.333)" fill="#00276b"/>
    <path id="패스_2075" data-name="패스 2075" d="M310.867,428.557a.533.533,0,0,0-.534.533v1.067a.534.534,0,1,0,1.067,0V429.09a.533.533,0,0,0-.534-.533Zm0,0" transform="translate(-6.667 -5.333)" fill="#00276b"/>
    <path id="패스_2076" data-name="패스 2076" d="M289,432.556h-2.134a.534.534,0,0,0,0,1.067H289a.534.534,0,0,0,0-1.067Zm0,0" transform="translate(-1.867 -6.133)" fill="#00276b"/>
    <path id="패스_2077" data-name="패스 2077" d="M294.333,432.556H292.2a.534.534,0,0,0,0,1.067h2.134a.534.534,0,0,0,0-1.067Zm0,0" transform="translate(-2.933 -6.133)" fill="#00276b"/>
    <path id="패스_2078" data-name="패스 2078" d="M289,435.223h-2.134a.534.534,0,0,0,0,1.067H289a.534.534,0,0,0,0-1.067Zm0,0" transform="translate(-1.867 -6.667)" fill="#00276b"/>
    <path id="패스_2079" data-name="패스 2079" d="M294.333,435.223H292.2a.534.534,0,0,0,0,1.067h2.134a.534.534,0,1,0,0-1.067Zm0,0" transform="translate(-2.933 -6.667)" fill="#00276b"/>
    <path id="패스_2080" data-name="패스 2080" d="M299.666,432.556h-2.134a.534.534,0,0,0,0,1.067h2.134a.534.534,0,0,0,0-1.067Zm0,0" transform="translate(-4 -6.133)" fill="#00276b"/>
  </g>
  <rect id="사각형_334" data-name="사각형 334" width="40" height="40" fill="none"/>
</svg>
