<svg height="60" width="60" xmlns="http://www.w3.org/2000/svg"><g fill="#d1d1d1" transform="translate(-267 -391.89)"><path d="m286.4 423.2v1.759a.879.879 0 0 0 1.758 0v-1.759a.879.879 0 0 0 -1.758 0zm0 0"/><path d="m305.84 423.2v1.759a.879.879 0 0 0 1.758 0v-1.759a.879.879 0 0 0 -1.758 0zm0 0"/><path d="m298.737 424.255a2.361 2.361 0 0 1 -3.474 0 .879.879 0 0 0 -1.324 1.158 4.123 4.123 0 0 0 6.122 0 .879.879 0 0 0 -1.324-1.158zm0 0"/><path d="m326.7 417.631a.9.9 0 0 0 -.235-.475l-23.535-24.515a.9.9 0 0 0 -.466-.253h-.01a30.312 30.312 0 0 0 -5.454-.498 29.748 29.748 0 0 0 -17.9 5.926.879.879 0 0 0 1.05 1.41 28 28 0 0 1 16.85-5.578 28.461 28.461 0 0 1 3.938.273 18.605 18.605 0 0 0 -1.676 5.306l-.007.042a22.76 22.76 0 0 0 -2.255-.113 22.734 22.734 0 1 0 15.309 39.544.879.879 0 1 0 -1.184-1.3 20.976 20.976 0 1 1 -14.125-36.486c.686 0 1.378.034 2.067.1v.005c-.021.365-.033.731-.033 1.1a18.579 18.579 0 0 0 18.558 18.558h.349c.023.408.035.816.035 1.218a20.753 20.753 0 0 1 -4.546 13.04.879.879 0 1 0 1.377 1.093 22.5 22.5 0 0 0 4.927-14.133c0-.442-.015-.888-.041-1.335h.02a19.186 19.186 0 0 0 5.119-1.344c.092-.039.183-.076.273-.116.091.925.137 1.862.137 2.8a28.249 28.249 0 1 1 -47.711-20.459.879.879 0 1 0 -1.212-1.273 30 30 0 1 0 50.681 21.722 30.3 30.3 0 0 0 -.3-4.249zm-25.907-15.513a16.921 16.921 0 0 1 1.708-7.386l21.855 22.768-.2.087a16.807 16.807 0 0 1 -23.364-15.468zm0 0"/></g></svg>