<svg xmlns="http://www.w3.org/2000/svg" xmlns:xlink="http://www.w3.org/1999/xlink" width="22" height="22.017" viewBox="0 0 22 22.017">
  <defs>
    <clipPath id="clip-path">
      <rect id="사각형_277" data-name="사각형 277" width="20.012" height="20.908" fill="#fff" stroke="#fff" stroke-width="0.2"/>
    </clipPath>
  </defs>
  <g id="Ic_Hot_White" transform="translate(0 0.008)">
    <g id="그룹_490" data-name="그룹 490" transform="translate(0.917 0.092)">
      <path id="패스_1925" data-name="패스 1925" d="M291.017,417.467l-1.543.008a3.163,3.163,0,0,1,.66-2.025,2.074,2.074,0,0,1,1.627-.711,1.175,1.175,0,0,0,1.049-.528,1.958,1.958,0,0,0,.309-1.022.763.763,0,1,1,1.518,0,3.762,3.762,0,0,1-.611,2.029,2.632,2.632,0,0,1-2.265,1.2.635.635,0,0,0-.529.19,1.507,1.507,0,0,0-.216.866Zm0,0" transform="translate(-277.895 -412.35)" fill="#fff" stroke="#fff" stroke-width="0.2"/>
      <path id="패스_1929" data-name="패스 1929" d="M306.879,418.965a5,5,0,0,0-1.6-1.116,4.879,4.879,0,0,0-1.972-.414H290.368a2.038,2.038,0,0,0-2.036,2.036v5.357a7.594,7.594,0,0,0,14.593,2.943l.009-.022h.378a4.866,4.866,0,0,0,1.929-.4,4.98,4.98,0,0,0,1.573-1.068,5.152,5.152,0,0,0,1.112-1.663,5.307,5.307,0,0,0,.016-4.024,5.163,5.163,0,0,0-1.063-1.635Zm-5.628,8.784a6.074,6.074,0,0,1-11.4-2.921v-5.357a.516.516,0,0,1,.516-.516h11.1a.517.517,0,0,1,.517.515l.013,5.344a6.107,6.107,0,0,1-.163,1.415,6.021,6.021,0,0,1-.584,1.52Zm5.561-5.161a3.575,3.575,0,0,1-3.424,3.642,7.587,7.587,0,0,0,.129-1.419l-.013-5.344a2,2,0,0,0-.065-.509,3.576,3.576,0,0,1,3.373,3.63Zm0,0" transform="translate(-288.325 -410.611)" fill="#fff" stroke="#fff" stroke-width="0.2"/>
      <path id="패스_1931" data-name="패스 1931" d="M291.017,417.467l-1.543.008a3.163,3.163,0,0,1,.66-2.025,2.074,2.074,0,0,1,1.627-.711,1.175,1.175,0,0,0,1.049-.528,1.958,1.958,0,0,0,.309-1.022.763.763,0,1,1,1.518,0,3.762,3.762,0,0,1-.611,2.029,2.632,2.632,0,0,1-2.265,1.2.635.635,0,0,0-.529.19,1.507,1.507,0,0,0-.216.866Zm0,0" transform="translate(-287.647 -412.35)" fill="#fff" stroke="#fff" stroke-width="0.2"/>
      <path id="패스_1932" data-name="패스 1932" d="M291.017,417.467l-1.543.008a3.163,3.163,0,0,1,.66-2.025,2.074,2.074,0,0,1,1.627-.711,1.175,1.175,0,0,0,1.049-.528,1.958,1.958,0,0,0,.309-1.022.763.763,0,1,1,1.518,0,3.762,3.762,0,0,1-.611,2.029,2.632,2.632,0,0,1-2.265,1.2.635.635,0,0,0-.529.19,1.507,1.507,0,0,0-.216.866Zm0,0" transform="translate(-282.83 -412.35)" fill="#fff" stroke="#fff" stroke-width="0.2"/>
    </g>
    <rect id="사각형_280" data-name="사각형 280" width="22" height="22" fill="none"/>
  </g>
</svg>
