<svg xmlns="http://www.w3.org/2000/svg" xmlns:xlink="http://www.w3.org/1999/xlink" width="57" height="23" viewBox="0 0 57 23">
  <defs>
    <clipPath id="clip-path">
      <rect id="사각형_277" data-name="사각형 277" width="20.012" height="20.908" fill="#fff" stroke="#fff" stroke-width="0.2"/>
    </clipPath>
  </defs>
  <g id="HOT_COLD" data-name="HOT&amp;COLD" transform="translate(0 0.5)">
    <line id="선_20" data-name="선 20" y2="22" transform="translate(28.5)" fill="none" stroke="#fff" stroke-linecap="round" stroke-width="1" opacity="0.15"/>
    <g id="Ic_Cold" transform="translate(35)">
      <path id="패스_1905" data-name="패스 1905" d="M258.182,263.476a.853.853,0,1,1-1.208,1.2l-1.1-1.1v1.4a.853.853,0,0,1-1.705,0v-1.422l-1.149,1.134a.853.853,0,0,1-1.2-1.214l2.346-2.315v-4.768l-4.087,2.425-.844,3.18a.852.852,0,0,1-.823.635.865.865,0,0,1-.219-.029.853.853,0,0,1-.606-1.043c.094-.354.246-.923.4-1.5l-1.189.7a.852.852,0,1,1-.869-1.466l1.211-.719-1.546-.409a.852.852,0,1,1,.437-1.648l3.166.837,4.151-2.463-4.122-2.435-3.2.809a.832.832,0,0,1-.209.026.853.853,0,0,1-.208-1.68l1.535-.387-1.248-.738a.852.852,0,1,1,.867-1.468l1.23.727c-.154-.587-.306-1.165-.4-1.524a.853.853,0,0,1,1.65-.433l.835,3.188,4.1,2.419v-4.729l-2.346-2.314a.852.852,0,1,1,1.2-1.213l1.149,1.133v-1.421a.853.853,0,1,1,1.705,0v1.421l1.149-1.134a.853.853,0,0,1,1.2,1.214l-2.347,2.314v4.725l4.1-2.43.79-3.124a.853.853,0,1,1,1.653.418c-.089.349-.23.909-.375,1.478l1.2-.715a.852.852,0,0,1,.869,1.466l-1.269.753,1.562.419a.852.852,0,0,1-.219,1.676.837.837,0,0,1-.221-.029l-3.172-.849-4.921,2.919v5.784l1.03,1.033Zm5.784-6.957-3.106.831-2.166-1.279a.852.852,0,1,0-.867,1.468l2.128,1.257.849,3.238a.851.851,0,0,0,.824.637.885.885,0,0,0,.216-.027.853.853,0,0,0,.608-1.041c-.1-.37-.255-.971-.412-1.574l1.243.734a.84.84,0,0,0,.432.119.853.853,0,0,0,.435-1.587l-1.234-.729,1.49-.4a.852.852,0,1,0-.44-1.647Z" transform="translate(-243.96 -244)" fill="#fff"/>
      <rect id="사각형_279" data-name="사각형 279" width="22" height="22" fill="none"/>
    </g>
    <g id="Ic_Hot">
      <g id="그룹_490" data-name="그룹 490" transform="translate(0.917 0.092)">
        <path id="패스_1925" data-name="패스 1925" d="M291.017,417.467l-1.543.008a3.163,3.163,0,0,1,.66-2.025,2.074,2.074,0,0,1,1.627-.711,1.175,1.175,0,0,0,1.049-.528,1.958,1.958,0,0,0,.309-1.022.763.763,0,1,1,1.518,0,3.762,3.762,0,0,1-.611,2.029,2.632,2.632,0,0,1-2.265,1.2.635.635,0,0,0-.529.19,1.507,1.507,0,0,0-.216.866Zm0,0" transform="translate(-277.895 -412.35)" fill="#fff" stroke="#fff" stroke-width="0.2"/>
        <path id="패스_1929" data-name="패스 1929" d="M306.879,418.965a5,5,0,0,0-1.6-1.116,4.879,4.879,0,0,0-1.972-.414H290.368a2.038,2.038,0,0,0-2.036,2.036v5.357a7.594,7.594,0,0,0,14.593,2.943l.009-.022h.378a4.867,4.867,0,0,0,1.929-.4,4.98,4.98,0,0,0,1.573-1.068,5.152,5.152,0,0,0,1.112-1.663,5.307,5.307,0,0,0,.016-4.024,5.163,5.163,0,0,0-1.063-1.635Zm-5.629,8.784a6.074,6.074,0,0,1-11.4-2.921v-5.357a.516.516,0,0,1,.516-.516h11.1a.517.517,0,0,1,.517.515l.013,5.344a6.107,6.107,0,0,1-.163,1.415,6.021,6.021,0,0,1-.584,1.52Zm5.561-5.161a3.575,3.575,0,0,1-3.424,3.642,7.587,7.587,0,0,0,.129-1.419l-.013-5.344a2,2,0,0,0-.065-.509,3.576,3.576,0,0,1,3.373,3.63Zm0,0" transform="translate(-288.325 -410.611)" fill="#fff" stroke="#fff" stroke-width="0.2"/>
        <path id="패스_1931" data-name="패스 1931" d="M291.017,417.467l-1.543.008a3.163,3.163,0,0,1,.66-2.025,2.074,2.074,0,0,1,1.627-.711,1.175,1.175,0,0,0,1.049-.528,1.958,1.958,0,0,0,.309-1.022.763.763,0,1,1,1.518,0,3.762,3.762,0,0,1-.611,2.029,2.632,2.632,0,0,1-2.265,1.2.635.635,0,0,0-.529.19,1.507,1.507,0,0,0-.216.866Zm0,0" transform="translate(-287.647 -412.35)" fill="#fff" stroke="#fff" stroke-width="0.2"/>
        <path id="패스_1932" data-name="패스 1932" d="M291.017,417.467l-1.543.008a3.163,3.163,0,0,1,.66-2.025,2.074,2.074,0,0,1,1.627-.711,1.175,1.175,0,0,0,1.049-.528,1.958,1.958,0,0,0,.309-1.022.763.763,0,1,1,1.518,0,3.762,3.762,0,0,1-.611,2.029,2.632,2.632,0,0,1-2.265,1.2.635.635,0,0,0-.529.19,1.507,1.507,0,0,0-.216.866Zm0,0" transform="translate(-282.83 -412.35)" fill="#fff" stroke="#fff" stroke-width="0.2"/>
      </g>
      <rect id="사각형_280" data-name="사각형 280" width="22" height="22" fill="none"/>
    </g>
  </g>
</svg>
