<svg xmlns="http://www.w3.org/2000/svg" width="28.951" height="22" viewBox="0 0 28.951 22">
  <g id="그룹_462" data-name="그룹 462" transform="translate(-285 -412.677)">
    <path id="패스_274" data-name="패스 274" d="M297.125,424.378a1.494,1.494,0,0,0,1.493,1.492h2.834a1.494,1.494,0,0,0,1.492-1.492v-2.513h-5.819Zm0,0" transform="translate(2.501 1.895)" fill="#00276b"/>
    <path id="패스_275" data-name="패스 275" d="M302.951,412.677A11.014,11.014,0,0,0,291.994,422.7h-3.011V413.1H285v20.914h3.983V424.4h2.992a11,11,0,1,0,10.976-11.727Zm.435,4.867h1.7v2.909h-1.7Zm-3.4,0h1.7v2.909h-1.7Zm8.124,9.464h-1.051a3.2,3.2,0,0,1-3.106,2.457h-2.834a3.2,3.2,0,0,1-3.193-3.193v-4.214H308.11a2.475,2.475,0,1,1,0,4.949Zm0,0" fill="#00276b"/>
    <path id="패스_276" data-name="패스 276" d="M304.323,421.865h-.964v1.549h.964a.774.774,0,0,0,0-1.549Zm0,0" transform="translate(3.787 1.895)" fill="#00276b"/>
  </g>
</svg>
