<svg xmlns="http://www.w3.org/2000/svg" xmlns:xlink="http://www.w3.org/1999/xlink" width="52.813" height="60" viewBox="0 0 52.813 60">
  <defs>
    <clipPath id="clip-path">
      <rect id="사각형_329" data-name="사각형 329" width="52.812" height="60" transform="translate(270.594 391.89)" fill="#d1d1d1"/>
    </clipPath>
  </defs>
  <g id="Ic_EmptyOrder" transform="translate(-270.594 -391.89)">
    <path id="패스_2045" data-name="패스 2045" d="M276.346,415.7a.88.88,0,0,0,.879.879h11.649a.879.879,0,0,0,0-1.758H277.225a.879.879,0,0,0-.879.879Zm0,0" fill="#d1d1d1"/>
    <path id="패스_2046" data-name="패스 2046" d="M277.225,421.752h11.649a.879.879,0,0,0,0-1.758H277.225a.879.879,0,0,0,0,1.758Zm0,0" fill="#d1d1d1"/>
    <path id="패스_2047" data-name="패스 2047" d="M277.225,426.931h11.649a.879.879,0,1,0,0-1.758H277.225a.879.879,0,1,0,0,1.758Zm0,0" fill="#d1d1d1"/>
    <path id="패스_2048" data-name="패스 2048" d="M277.225,433.718h23.6a.879.879,0,0,0,0-1.758h-23.6a.879.879,0,1,0,0,1.758Zm0,0" fill="#d1d1d1"/>
    <g id="그룹_602" data-name="그룹 602">
      <g id="그룹_601" data-name="그룹 601" clip-path="url(#clip-path)">
        <path id="패스_2049" data-name="패스 2049" d="M294.855,425.483a.879.879,0,1,0-.963,1.47,5.342,5.342,0,0,0,2.922,1.021v.972a.879.879,0,0,0,1.758,0V427.9a4.345,4.345,0,0,0,3.419-3.566,3.816,3.816,0,0,0-2.626-4.366c-.261-.092-.528-.188-.793-.289v-4.226a2.762,2.762,0,0,1,1.109.528.879.879,0,0,0,1.186-1.3,4.582,4.582,0,0,0-2.3-1.019V412.8a.879.879,0,0,0-1.758,0v.935c-.135.03-.271.064-.41.105a3.612,3.612,0,0,0-2.474,2.834,3.178,3.178,0,0,0,1.04,3.133,8.6,8.6,0,0,0,1.844,1.054v5.352a3.673,3.673,0,0,1-1.959-.731Zm1.2-7.059a1.443,1.443,0,0,1-.4-1.424,1.892,1.892,0,0,1,1.157-1.442v3.35a5.439,5.439,0,0,1-.759-.484Zm2.724,3.2a2.084,2.084,0,0,1,1.478,2.417,2.623,2.623,0,0,1-1.685,2.035v-4.526l.207.074Zm0,0" fill="#d1d1d1"/>
        <path id="패스_2050" data-name="패스 2050" d="M271.537,410.6a.879.879,0,0,0-.879.879v38.82a1.262,1.262,0,0,0,1.964,1.047l5.013-3.364,5.608,3.764a.877.877,0,0,0,.979,0l5.608-3.764,5.4,3.621a1.254,1.254,0,0,0,1.4,0l5.395-3.621,5.012,3.364A1.262,1.262,0,0,0,309,450.294V439.6a.879.879,0,1,0-1.757,0v9.761l-4.516-3.031a1.256,1.256,0,0,0-1.406,0l-5.394,3.621-5.608-3.764a.879.879,0,0,0-.98,0l-5.608,3.764-5.607-3.764a.879.879,0,0,0-.98,0l-4.729,3.174V411.474a.878.878,0,0,0-.879-.879Zm0,0" fill="#d1d1d1"/>
      </g>
    </g>
    <path id="패스_2051" data-name="패스 2051" d="M315.292,391.89H278.708a8.059,8.059,0,0,0-8.05,8.049v8.02a.879.879,0,0,0,1.758,0v-8.02a6.3,6.3,0,0,1,6.292-6.291h31.569a8.07,8.07,0,0,0-3.033,6.291v36.148a.879.879,0,1,0,1.757,0V404.171h12.08a2.264,2.264,0,0,0,2.261-2.26v-1.972a8.059,8.059,0,0,0-8.05-8.049Zm6.292,10.021a.5.5,0,0,1-.5.5H309v-2.474a6.292,6.292,0,0,1,12.583,0Zm0,0" fill="#d1d1d1"/>
    <path id="패스_2034" data-name="패스 2034" d="M287.9,429.864a.88.88,0,0,1-.879-.879v-1.407a.879.879,0,0,1,1.758,0v1.407a.879.879,0,0,1-.879.879Zm0,0" transform="translate(-7.372 -25)" fill="#d1d1d1"/>
    <path id="패스_2035" data-name="패스 2035" d="M297.125,433.283a3.042,3.042,0,1,1,2.8-3.033,2.928,2.928,0,0,1-2.8,3.033Zm0-4.307a1.3,1.3,0,1,0,1.045,1.274,1.178,1.178,0,0,0-1.045-1.274Zm0,0" transform="translate(-7.372 -25)" fill="#d1d1d1"/>
    <path id="패스_2036" data-name="패스 2036" d="M306.345,429.864a.879.879,0,0,1-.879-.879v-1.407a.879.879,0,0,1,1.758,0v1.407a.88.88,0,0,1-.879.879Zm0,0" transform="translate(-7.372 -25)" fill="#d1d1d1"/>
  </g>
</svg>
