<svg xmlns="http://www.w3.org/2000/svg" width="21.234" height="24" viewBox="0 0 21.234 24">
  <g id="Ic_Process04" transform="translate(-286.254 -409.89)">
    <path id="패스_2191" data-name="패스 2191" d="M299.051,433.89h-4.313a5.626,5.626,0,0,1-5.6-5.045l-1.017-9.811a.938.938,0,0,1,1.865-.194l1.017,9.812a3.742,3.742,0,0,0,3.73,3.363h4.313a3.743,3.743,0,0,0,3.728-3.351l1.052-9.827a.938.938,0,0,1,1.865.2l-1.052,9.827a5.615,5.615,0,0,1-5.593,5.026Zm7.668-18.441a2.607,2.607,0,0,0,.769-1.856v-.014a3.751,3.751,0,0,0-3.75-3.689h-13.7a3.762,3.762,0,0,0-3.785,3.7v.006a2.627,2.627,0,0,0,2.625,2.625h15.984a2.6,2.6,0,0,0,1.856-.769Zm-16.68-3.684h13.7a1.881,1.881,0,0,1,1.875,1.835.751.751,0,0,1-.75.743H288.879a.75.75,0,0,1-.75-.747,1.885,1.885,0,0,1,1.91-1.831Zm10.84,10.969h-.691a4.361,4.361,0,0,0-.848-1.912,3.071,3.071,0,0,0-4.984,0,4.35,4.35,0,0,0-.848,1.912h-.691a.938.938,0,1,0,0,1.875h.709a4.331,4.331,0,0,0,.83,1.818,3.071,3.071,0,0,0,4.984,0,4.355,4.355,0,0,0,.83-1.818h.709a.938.938,0,0,0,0-1.875Zm-4.031,3.094c-.839,0-1.547-1.009-1.547-2.2s.708-2.2,1.547-2.2,1.547,1.009,1.547,2.2-.709,2.2-1.547,2.2Zm0,0" fill="#d1d1d1"/>
  </g>
</svg>
