<svg xmlns="http://www.w3.org/2000/svg" width="12.737" height="16" viewBox="0 0 12.737 16">
    <defs>
        <clipPath id="clip-path">
            <path id="사각형_313" d="M0 0H12.737V16H0z" class="cls-1" transform="translate(290.631 413.85)"/>
        </clipPath>
  
    </defs>
    <g id="Ic_Placeholder" transform="translate(-290.631 -413.85)">
        <g id="그룹_563">
            <g id="그룹_562" clip-path="url(#clip-path)">
                <path id="패스_1988" d="M296.759 413.886a6.359 6.359 0 0 0-6.013 7.557s.01.069.043.2a6.362 6.362 0 0 0 .428 1.26 18.4 18.4 0 0 0 5.415 6.78.551.551 0 0 0 .705 0 18.384 18.384 0 0 0 5.418-6.783 6.046 6.046 0 0 0 .428-1.261c.03-.127.043-.2.043-.2a6.359 6.359 0 0 0-6.467-7.554zm.226 9.51a3.086 3.086 0 1 1 3.086-3.086 3.086 3.086 0 0 1-3.086 3.086zm0 0" 
                fill="#ed6363"/>
            </g>
        </g>
    </g>
</svg>