<svg height="16" viewBox="0 0 12.737 16" width="12.737" xmlns="http://www.w3.org/2000/svg" xmlns:xlink="http://www.w3.org/1999/xlink"><clipPath id="a">
<path d="m0 0h12.737v16h-12.737z" transform="translate(290.631 413.85)"/></clipPath><g clip-path="url(#a)" transform="translate(-290.631 -413.85)">
<path d="m296.759 413.886a6.359 6.359 0 0 0 -6.013 7.557s.01.069.043.2a6.362 6.362 0 0 0 .428 1.26 18.4 18.4 0 0 0 5.415 6.78.551.551 0 0 0 .705 0 18.384 18.384 0 0 0 5.418-6.783 6.046 6.046 0 0 0 .428-1.261c.03-.127.043-.2.043-.2a6.359 6.359 0 0 0 -6.467-7.554zm.226 9.51a3.086 3.086 0 1 1 3.086-3.086 3.086 3.086 0 0 1 -3.086 3.086zm0 0" fill="#ed6363"/>
</g>
</svg>