<svg xmlns="http://www.w3.org/2000/svg" width="24" height="23.853" viewBox="0 0 24 23.853">
  <g id="Ic_Process01_Selected" transform="translate(-244 -244.073)">
    <rect id="사각형_357" data-name="사각형 357" width="15.529" height="1.765" transform="translate(248.059 266.161)" fill="#fff"/>
    <path id="패스_2183" data-name="패스 2183" d="M258.618,253.72h-5.442a.882.882,0,0,1,0-1.765h5.442a.882.882,0,0,1,0,1.765Z" fill="#fff"/>
    <path id="패스_2184" data-name="패스 2184" d="M262.735,257.837h-9.559a.882.882,0,0,1,0-1.764h9.559a.882.882,0,1,1,0,1.764Z" fill="#fff"/>
    <path id="패스_2185" data-name="패스 2185" d="M263.794,267.926a4.211,4.211,0,0,1-4.206-4.206v-1.265H245.765v1.265a2.444,2.444,0,0,0,2.441,2.441v1.765A4.211,4.211,0,0,1,244,263.72v-2.147a.882.882,0,0,1,.882-.883h3V244.985a.882.882,0,0,1,1.467-.661l2.471,2.186,2.474-2.213a.883.883,0,0,1,1.176,0l2.471,2.21,2.471-2.21a.883.883,0,0,1,1.176,0l2.474,2.213,2.471-2.186a.882.882,0,0,1,1.467.661V263.72A4.211,4.211,0,0,1,263.794,267.926Zm-14.147-7.236h10.824a.882.882,0,0,1,.882.883v2.147a2.441,2.441,0,1,0,4.882,0V246.943l-1.591,1.408a.884.884,0,0,1-1.173,0L261,246.139l-2.471,2.209a.881.881,0,0,1-1.176,0l-2.471-2.209-2.47,2.209a.882.882,0,0,1-1.173,0l-1.592-1.409Z" fill="#fff"/>
  </g>
</svg>
