<svg xmlns="http://www.w3.org/2000/svg" xmlns:xlink="http://www.w3.org/1999/xlink" width="22" height="24" viewBox="0 0 22 24">
  <defs>
    <clipPath id="clip-path">
      <rect id="사각형_359" data-name="사각형 359" width="22" height="24" transform="translate(286 409.89)" fill="#fff"/>
    </clipPath>
  </defs>
  <g id="Ic_Process02_Selected" transform="translate(-286 -409.89)">
    <g id="그룹_699" data-name="그룹 699">
      <g id="그룹_698" data-name="그룹 698" clip-path="url(#clip-path)">
        <path id="패스_2189" data-name="패스 2189" d="M298.548,433.89h-6.891a5.631,5.631,0,0,1-5.625-5.625v-12.75a5.631,5.631,0,0,1,5.625-5.625h8.625a5.631,5.631,0,0,1,5.625,5.625v6.891a.938.938,0,0,1-1.875,0v-6.891a3.754,3.754,0,0,0-3.75-3.75h-8.625a3.754,3.754,0,0,0-3.75,3.75v12.75a3.754,3.754,0,0,0,3.75,3.75h6.891a.938.938,0,0,1,0,1.875Zm8.419-1a3.425,3.425,0,0,0,0-4.84l-3.286-3.286a6.756,6.756,0,0,0-3.465-1.854l-2.656-.531a.937.937,0,0,0-1.1,1.1l.53,2.656a6.756,6.756,0,0,0,1.855,3.465l3.286,3.287a3.427,3.427,0,0,0,4.839,0Zm-7.119-8.142a4.895,4.895,0,0,1,2.507,1.342l3.286,3.286a1.547,1.547,0,1,1-2.187,2.188l-3.286-3.286a4.895,4.895,0,0,1-1.342-2.507l-.255-1.278Zm2.262-6.231a.937.937,0,0,0-.937-.937h-1.594a1.408,1.408,0,0,1-1.406-1.407v-1.593a.938.938,0,1,0-1.875,0v1.593a3.285,3.285,0,0,0,3.281,3.282h1.594a.938.938,0,0,0,.937-.938Zm-7.64,3.656h-2.438a.938.938,0,0,1,0-1.875h2.438a.938.938,0,0,1,0,1.875Zm.468,2.813a.937.937,0,0,0-.937-.938h-1.969a.938.938,0,0,0,0,1.875H294a.936.936,0,0,0,.937-.937Zm1.125,3.75a.937.937,0,0,0-.937-.938h-3.094a.938.938,0,0,0,0,1.875h3.094a.936.936,0,0,0,.937-.937Zm0,0" fill="#fff"/>
      </g>
    </g>
  </g>
</svg>
