<svg xmlns="http://www.w3.org/2000/svg" xmlns:xlink="http://www.w3.org/1999/xlink" width="24" height="24" viewBox="0 0 24 24">
  <defs>
    <clipPath id="clip-path">
      <rect id="사각형_356" data-name="사각형 356" width="24" height="24" transform="translate(285 409.89)" fill="#d1d1d1"/>
    </clipPath>
  </defs>
  <g id="Ic_Process03" transform="translate(-285 -409.89)">
    <g id="그룹_691" data-name="그룹 691">
      <g id="그룹_690" data-name="그룹 690" clip-path="url(#clip-path)">
        <path id="패스_2181" data-name="패스 2181" d="M295.59,433.888a2.8,2.8,0,0,1-1.989-.822l-7.777-7.775a2.813,2.813,0,0,1,0-3.978l.69-.691a2.834,2.834,0,0,1,2.367-.8l3.471.471a2.585,2.585,0,0,0,2.162-.727l1.654-1.647A12.28,12.28,0,0,0,299.3,412.6a3.693,3.693,0,0,1,.9-1.568,3.782,3.782,0,0,1,4.716-.565,9.76,9.76,0,0,1,3.5,3.5,3.781,3.781,0,0,1-.564,4.716,3.7,3.7,0,0,1-1.568.9,12.282,12.282,0,0,0-5.319,3.136l-.007.007-.354.347a.938.938,0,0,1-1.314-1.338l.35-.343a14.164,14.164,0,0,1,6.13-3.612,1.826,1.826,0,0,0,.772-.438,1.917,1.917,0,0,0,.287-2.377,7.9,7.9,0,0,0-2.914-2.911,1.913,1.913,0,0,0-2.376.287,1.817,1.817,0,0,0-.439.772,14.154,14.154,0,0,1-3.615,6.133l-1.654,1.648a4.475,4.475,0,0,1-3.737,1.256l-3.471-.471a.946.946,0,0,0-.789.266l-.69.691a.937.937,0,0,0,0,1.325l7.777,7.776a.94.94,0,0,0,1.326,0l.691-.691a.942.942,0,0,0,.265-.789l0-.042-.314-3.513a2.824,2.824,0,0,0-.813-1.738l-.772-.772a.938.938,0,1,1,1.326-1.326l.772.772a4.692,4.692,0,0,1,1.354,2.9l.313,3.494a2.83,2.83,0,0,1-.8,2.343l-.69.691a2.807,2.807,0,0,1-1.989.822Zm.1-5.38a.936.936,0,0,0,0-1.326l-4.031-4.031a.937.937,0,1,0-1.326,1.325l4.031,4.032a.939.939,0,0,0,1.326,0Zm0,0" fill="#d1d1d1"/>
      </g>
    </g>
  </g>
</svg>
