<svg xmlns="http://www.w3.org/2000/svg" xmlns:xlink="http://www.w3.org/1999/xlink" width="13.966" height="14" viewBox="0 0 13.966 14">
  <defs>
    <clipPath id="clip-path">
      <rect id="사각형_355" data-name="사각형 355" width="13.966" height="14" fill="#666"/>
    </clipPath>
  </defs>
  <g id="그룹_688" data-name="그룹 688" transform="translate(-288.982 -413.33)">
    <g id="그룹_687" data-name="그룹 687" transform="translate(288.982 413.33)">
      <g id="그룹_686" data-name="그룹 686" clip-path="url(#clip-path)">
        <path id="패스_2177" data-name="패스 2177" d="M301.031,413.87l.707-.089a.582.582,0,0,0,.5-.647.574.574,0,0,0-.647-.5l-2.126.265a.583.583,0,0,0-.5.645l.262,2.155a.579.579,0,1,0,1.15-.143l-.1-.8a5.8,5.8,0,0,1-3.446,10.453.58.58,0,1,0,0,1.157,6.955,6.955,0,0,0,4.2-12.492Zm0,0" transform="translate(-289.813 -412.396)" fill="#666"/>
        <path id="패스_2178" data-name="패스 2178" d="M292.534,423a.579.579,0,1,0-1.149.142l.1.8a5.8,5.8,0,0,1,3.446-10.454.579.579,0,1,0,0-1.157,6.956,6.956,0,0,0-4.2,12.495l-.707.089a.582.582,0,0,0-.5.647.575.575,0,0,0,.647.5l2.126-.265a.582.582,0,0,0,.5-.645Zm0,0" transform="translate(-287.982 -412.332)" fill="#666"/>
      </g>
    </g>
  </g>
</svg>
