<svg xmlns="http://www.w3.org/2000/svg" width="60" height="60" viewBox="0 0 60 60">
  <g id="Ic_IceL_Selected" transform="translate(-267 -204)">
    <g id="그룹_759" data-name="그룹 759" transform="translate(-8 -0.38)">
      <g id="그룹_746" data-name="그룹 746" transform="translate(52.335 -537.282)">
        <path id="패스_2227" data-name="패스 2227" d="M308.885,802.17l3.114-1.8a.545.545,0,1,0-.545-.943l-3.114,1.8a.545.545,0,1,0,.545.943Z" transform="translate(-59.152 -28.065)" fill="#00276b" stroke="#00276b" stroke-miterlimit="10" stroke-width="0.4"/>
        <path id="패스_2228" data-name="패스 2228" d="M275.67,851.028a.544.544,0,0,0,.545-.545v-7.745l6.707-3.873a.545.545,0,1,0-.545-.943L275.67,841.8l-6.707-3.872a.545.545,0,0,0-.545.943l6.707,3.872v7.745A.545.545,0,0,0,275.67,851.028Z" transform="translate(-23.095 -62.832)" fill="#00276b" stroke="#00276b" stroke-miterlimit="10" stroke-width="0.4"/>
        <path id="패스_2229" data-name="패스 2229" d="M262.03,778.809a.545.545,0,0,0,.545-.545V774.7a1.532,1.532,0,0,0-.765-1.324l-8.471-4.891a1.533,1.533,0,0,0-1.529,0l-8.471,4.891a1.532,1.532,0,0,0-.764,1.324v9.781a1.533,1.533,0,0,0,.765,1.324l8.471,4.891a1.533,1.533,0,0,0,1.529,0l8.471-4.891a1.533,1.533,0,0,0,.765-1.324v-3.677a.545.545,0,1,0-1.089,0v3.677a.441.441,0,0,1-.22.381l-8.471,4.891a.442.442,0,0,1-.44,0l-8.471-4.891a.441.441,0,0,1-.22-.381V774.7a.441.441,0,0,1,.22-.381l8.471-4.891a.441.441,0,0,1,.44,0l8.471,4.891a.441.441,0,0,1,.22.381v3.563A.545.545,0,0,0,262.03,778.809Z" transform="translate(0)" fill="#00276b" stroke="#00276b" stroke-miterlimit="10" stroke-width="0.4"/>
      </g>
      <g id="그룹_745" data-name="그룹 745" transform="translate(42.825 -553.902)">
        <path id="패스_2227-2" data-name="패스 2227" d="M308.885,802.17l3.114-1.8a.545.545,0,1,0-.545-.943l-3.114,1.8a.545.545,0,1,0,.545.943Z" transform="translate(-59.152 -28.065)" fill="#00276b" stroke="#00276b" stroke-miterlimit="10" stroke-width="0.4"/>
        <path id="패스_2228-2" data-name="패스 2228" d="M275.67,851.028a.544.544,0,0,0,.545-.545v-7.745l6.707-3.873a.545.545,0,1,0-.545-.943L275.67,841.8l-6.707-3.872a.545.545,0,0,0-.545.943l6.707,3.872v7.745A.545.545,0,0,0,275.67,851.028Z" transform="translate(-23.095 -62.832)" fill="#00276b" stroke="#00276b" stroke-miterlimit="10" stroke-width="0.4"/>
        <path id="패스_2229-2" data-name="패스 2229" d="M262.03,778.809a.545.545,0,0,0,.545-.545V774.7a1.532,1.532,0,0,0-.765-1.324l-8.471-4.891a1.533,1.533,0,0,0-1.529,0l-8.471,4.891a1.532,1.532,0,0,0-.764,1.324v9.781a1.533,1.533,0,0,0,.765,1.324l8.471,4.891a1.533,1.533,0,0,0,1.529,0l8.471-4.891a1.533,1.533,0,0,0,.765-1.324v-3.677a.545.545,0,1,0-1.089,0v3.677a.441.441,0,0,1-.22.381l-8.471,4.891a.442.442,0,0,1-.44,0l-8.471-4.891a.441.441,0,0,1-.22-.381V774.7a.441.441,0,0,1,.22-.381l8.471-4.891a.441.441,0,0,1,.44,0l8.471,4.891a.441.441,0,0,1,.22.381v3.563A.545.545,0,0,0,262.03,778.809Z" transform="translate(0)" fill="#00276b" stroke="#00276b" stroke-miterlimit="10" stroke-width="0.4"/>
      </g>
      <g id="그룹_747" data-name="그룹 747" transform="translate(33.425 -537.282)">
        <path id="패스_2227-3" data-name="패스 2227" d="M308.885,802.17l3.114-1.8a.545.545,0,1,0-.545-.943l-3.114,1.8a.545.545,0,1,0,.545.943Z" transform="translate(-59.152 -28.065)" fill="#00276b" stroke="#00276b" stroke-miterlimit="10" stroke-width="0.4"/>
        <path id="패스_2228-3" data-name="패스 2228" d="M275.67,851.028a.544.544,0,0,0,.545-.545v-7.745l6.707-3.873a.545.545,0,1,0-.545-.943L275.67,841.8l-6.707-3.872a.545.545,0,0,0-.545.943l6.707,3.872v7.745A.545.545,0,0,0,275.67,851.028Z" transform="translate(-23.095 -62.832)" fill="#00276b" stroke="#00276b" stroke-miterlimit="10" stroke-width="0.4"/>
        <path id="패스_2229-3" data-name="패스 2229" d="M262.03,778.809a.545.545,0,0,0,.545-.545V774.7a1.532,1.532,0,0,0-.765-1.324l-8.471-4.891a1.533,1.533,0,0,0-1.529,0l-8.471,4.891a1.532,1.532,0,0,0-.764,1.324v9.781a1.533,1.533,0,0,0,.765,1.324l8.471,4.891a1.533,1.533,0,0,0,1.529,0l8.471-4.891a1.533,1.533,0,0,0,.765-1.324v-3.677a.545.545,0,1,0-1.089,0v3.677a.441.441,0,0,1-.22.381l-8.471,4.891a.442.442,0,0,1-.44,0l-8.471-4.891a.441.441,0,0,1-.22-.381V774.7a.441.441,0,0,1,.22-.381l8.471-4.891a.441.441,0,0,1,.44,0l8.471,4.891a.441.441,0,0,1,.22.381v3.563A.545.545,0,0,0,262.03,778.809Z" transform="translate(0)" fill="#00276b" stroke="#00276b" stroke-miterlimit="10" stroke-width="0.4"/>
      </g>
      <g id="그룹_751" data-name="그룹 751" transform="translate(52.335 -537.282)">
        <path id="패스_2227-4" data-name="패스 2227" d="M308.885,802.17l3.114-1.8a.545.545,0,1,0-.545-.943l-3.114,1.8a.545.545,0,1,0,.545.943Z" transform="translate(-59.152 -28.065)" fill="#00276b" stroke="#00276b" stroke-miterlimit="10" stroke-width="0.4"/>
        <path id="패스_2228-4" data-name="패스 2228" d="M275.67,851.028a.544.544,0,0,0,.545-.545v-7.745l6.707-3.873a.545.545,0,1,0-.545-.943L275.67,841.8l-6.707-3.872a.545.545,0,0,0-.545.943l6.707,3.872v7.745A.545.545,0,0,0,275.67,851.028Z" transform="translate(-23.095 -62.832)" fill="#00276b" stroke="#00276b" stroke-miterlimit="10" stroke-width="0.4"/>
        <path id="패스_2229-4" data-name="패스 2229" d="M262.03,778.809a.545.545,0,0,0,.545-.545V774.7a1.532,1.532,0,0,0-.765-1.324l-8.471-4.891a1.533,1.533,0,0,0-1.529,0l-8.471,4.891a1.532,1.532,0,0,0-.764,1.324v9.781a1.533,1.533,0,0,0,.765,1.324l8.471,4.891a1.533,1.533,0,0,0,1.529,0l8.471-4.891a1.533,1.533,0,0,0,.765-1.324v-3.677a.545.545,0,1,0-1.089,0v3.677a.441.441,0,0,1-.22.381l-8.471,4.891a.442.442,0,0,1-.44,0l-8.471-4.891a.441.441,0,0,1-.22-.381V774.7a.441.441,0,0,1,.22-.381l8.471-4.891a.441.441,0,0,1,.44,0l8.471,4.891a.441.441,0,0,1,.22.381v3.563A.545.545,0,0,0,262.03,778.809Z" transform="translate(0)" fill="#00276b" stroke="#00276b" stroke-miterlimit="10" stroke-width="0.4"/>
      </g>
      <g id="그룹_752" data-name="그룹 752" transform="translate(61.725 -553.902)">
        <path id="패스_2227-5" data-name="패스 2227" d="M308.885,802.17l3.114-1.8a.545.545,0,1,0-.545-.943l-3.114,1.8a.545.545,0,1,0,.545.943Z" transform="translate(-59.152 -28.065)" fill="#00276b" stroke="#00276b" stroke-miterlimit="10" stroke-width="0.4"/>
        <path id="패스_2228-5" data-name="패스 2228" d="M275.67,851.028a.544.544,0,0,0,.545-.545v-7.745l6.707-3.873a.545.545,0,1,0-.545-.943L275.67,841.8l-6.707-3.872a.545.545,0,0,0-.545.943l6.707,3.872v7.745A.545.545,0,0,0,275.67,851.028Z" transform="translate(-23.095 -62.832)" fill="#00276b" stroke="#00276b" stroke-miterlimit="10" stroke-width="0.4"/>
        <path id="패스_2229-5" data-name="패스 2229" d="M262.03,778.809a.545.545,0,0,0,.545-.545V774.7a1.532,1.532,0,0,0-.765-1.324l-8.471-4.891a1.533,1.533,0,0,0-1.529,0l-8.471,4.891a1.532,1.532,0,0,0-.764,1.324v9.781a1.533,1.533,0,0,0,.765,1.324l8.471,4.891a1.533,1.533,0,0,0,1.529,0l8.471-4.891a1.533,1.533,0,0,0,.765-1.324v-3.677a.545.545,0,1,0-1.089,0v3.677a.441.441,0,0,1-.22.381l-8.471,4.891a.442.442,0,0,1-.44,0l-8.471-4.891a.441.441,0,0,1-.22-.381V774.7a.441.441,0,0,1,.22-.381l8.471-4.891a.441.441,0,0,1,.44,0l8.471,4.891a.441.441,0,0,1,.22.381v3.563A.545.545,0,0,0,262.03,778.809Z" transform="translate(0)" fill="#00276b" stroke="#00276b" stroke-miterlimit="10" stroke-width="0.4"/>
      </g>
      <g id="그룹_753" data-name="그룹 753" transform="translate(71.235 -537.282)">
        <path id="패스_2227-6" data-name="패스 2227" d="M308.885,802.17l3.114-1.8a.545.545,0,1,0-.545-.943l-3.114,1.8a.545.545,0,1,0,.545.943Z" transform="translate(-59.152 -28.065)" fill="#00276b" stroke="#00276b" stroke-miterlimit="10" stroke-width="0.4"/>
        <path id="패스_2228-6" data-name="패스 2228" d="M275.67,851.028a.544.544,0,0,0,.545-.545v-7.745l6.707-3.873a.545.545,0,1,0-.545-.943L275.67,841.8l-6.707-3.872a.545.545,0,0,0-.545.943l6.707,3.872v7.745A.545.545,0,0,0,275.67,851.028Z" transform="translate(-23.095 -62.832)" fill="#00276b" stroke="#00276b" stroke-miterlimit="10" stroke-width="0.4"/>
        <path id="패스_2229-6" data-name="패스 2229" d="M262.03,778.809a.545.545,0,0,0,.545-.545V774.7a1.532,1.532,0,0,0-.765-1.324l-8.471-4.891a1.533,1.533,0,0,0-1.529,0l-8.471,4.891a1.532,1.532,0,0,0-.764,1.324v9.781a1.533,1.533,0,0,0,.765,1.324l8.471,4.891a1.533,1.533,0,0,0,1.529,0l8.471-4.891a1.533,1.533,0,0,0,.765-1.324v-3.677a.545.545,0,1,0-1.089,0v3.677a.441.441,0,0,1-.22.381l-8.471,4.891a.442.442,0,0,1-.44,0l-8.471-4.891a.441.441,0,0,1-.22-.381V774.7a.441.441,0,0,1,.22-.381l8.471-4.891a.441.441,0,0,1,.44,0l8.471,4.891a.441.441,0,0,1,.22.381v3.563A.545.545,0,0,0,262.03,778.809Z" transform="translate(0)" fill="#00276b" stroke="#00276b" stroke-miterlimit="10" stroke-width="0.4"/>
      </g>
    </g>
    <rect id="사각형_369" data-name="사각형 369" width="60" height="60" transform="translate(267 204)" fill="none"/>
  </g>
</svg>
