<svg id="Ic_Setting03" xmlns="http://www.w3.org/2000/svg" width="24" height="24">
    <defs>
        <style>
            .cls-1{fill:#222}
        </style>
    </defs>
    <g id="그룹_568" data-name="그룹 568" transform="translate(2 2)">
        <path id="패스_1991" data-name="패스 1991" class="cls-1" d="M258.825 255.664h6.666a.833.833 0 1 0 0-1.667h-6.666a.833.833 0 0 0 0 1.667z" transform="translate(-246.325 -245.663)"/>
        <path id="패스_1992" data-name="패스 1992" class="cls-1" d="m266.913 253.741-2.5-2.5a.833.833 0 0 0-1.178 1.178l2.5 2.5a.833.833 0 1 0 1.178-1.178z" transform="translate(-247.158 -245.163)"/>
        <path id="패스_1993" data-name="패스 1993" class="cls-1" d="m265.735 254.241-2.5 2.5a.833.833 0 0 0 1.178 1.178l2.5-2.5a.833.833 0 1 0-1.178-1.178z" transform="translate(-247.158 -245.663)"/>
        <path id="패스_1994" data-name="패스 1994" class="cls-1" d="m252.325 247.95-6.667-2v14.863l6.667 1.333zm.67 16.03-8.333-1.667a.834.834 0 0 1-.67-.817V244.83a.833.833 0 0 1 1.072-.8l8.333 2.5a.834.834 0 0 1 .594.8v15.832a.834.834 0 0 1-.991.818z" transform="translate(-243.991 -243.996)"/>
        <path id="패스_1995" data-name="패스 1995" class="cls-1" d="M252.325 247.95v13.55a.833.833 0 0 0 .833.833h5a.833.833 0 0 0 .833-.833v-5a.833.833 0 1 0-1.667 0v4.167h-3.332V247.33a.834.834 0 0 0-.594-.8l-2.895-.868h6.822v4.167a.833.833 0 0 0 1.667 0v-5a.833.833 0 0 0-.833-.833h-13.334a.833.833 0 0 0-.239 1.632z" transform="translate(-243.991 -243.996)"/>
    </g>
    <path id="사각형_319" data-name="사각형 319" style="fill:none" d="M0 0h24v24H0z"/>
</svg>
