<svg xmlns="http://www.w3.org/2000/svg" width="21" height="20.932" viewBox="0 0 21 20.932">
  <g id="Ic_Order_White" transform="translate(0.5 0.554)">
    <path id="합치기_1" data-name="합치기 1" d="M-3302.677-650.127v0h-12.941v0a3.509,3.509,0,0,1-3.383-3.5v-1.789a.735.735,0,0,1,.735-.736h2.5V-669.24a.735.735,0,0,1,.433-.671.735.735,0,0,1,.789.12l2.059,1.822,2.062-1.844a.735.735,0,0,1,.98,0l2.059,1.841,2.059-1.841a.734.734,0,0,1,.979,0l2.062,1.844,2.06-1.822a.735.735,0,0,1,.789-.12.736.736,0,0,1,.434.671v15.613a3.509,3.509,0,0,1-3.5,3.5Q-3302.591-650.123-3302.677-650.127Zm-11.617-6.026h9.019a.735.735,0,0,1,.735.736v1.789a2.037,2.037,0,0,0,2.035,2.034,2.037,2.037,0,0,0,2.034-2.034v-13.981l-1.326,1.173a.736.736,0,0,1-.977,0l-2.06-1.841-2.059,1.841a.735.735,0,0,1-.98,0l-2.059-1.841-2.059,1.841a.735.735,0,0,1-.977,0l-1.327-1.174Zm8.936,4.559a3.485,3.485,0,0,1-.652-2.034v-1.055h-11.519v1.055a2.037,2.037,0,0,0,2.035,2.034Zm-6-6.937a.735.735,0,0,1-.735-.735.735.735,0,0,1,.735-.735h7.966a.735.735,0,0,1,.736.735.735.735,0,0,1-.736.735Zm0-3.431a.735.735,0,0,1-.735-.736.735.735,0,0,1,.735-.735h4.534a.735.735,0,0,1,.736.735.736.736,0,0,1-.736.736Z" transform="translate(3319 670)" fill="#fff" stroke="rgba(0,0,0,0)" stroke-miterlimit="10" stroke-width="1"/>
  </g>
</svg>
