<svg xmlns="http://www.w3.org/2000/svg" width="60" height="60" viewBox="0 0 60 60">
  <g id="Ic_IceS" transform="translate(-49 -204)">
    <g id="그룹_758" data-name="그룹 758">
      <g id="그룹_755" data-name="그룹 755" transform="translate(-163.665 -537.282)">
        <path id="패스_2227" data-name="패스 2227" d="M308.885,802.17l3.114-1.8a.545.545,0,1,0-.545-.943l-3.114,1.8a.545.545,0,1,0,.545.943Z" transform="translate(-59.152 -28.065)" fill="#999" stroke="#999" stroke-miterlimit="10" stroke-width="0.4"/>
        <path id="패스_2228" data-name="패스 2228" d="M275.67,851.028a.544.544,0,0,0,.545-.545v-7.745l6.707-3.873a.545.545,0,1,0-.545-.943L275.67,841.8l-6.707-3.872a.545.545,0,0,0-.545.943l6.707,3.872v7.745A.545.545,0,0,0,275.67,851.028Z" transform="translate(-23.095 -62.832)" fill="#999" stroke="#999" stroke-miterlimit="10" stroke-width="0.4"/>
        <path id="패스_2229" data-name="패스 2229" d="M262.03,778.809a.545.545,0,0,0,.545-.545V774.7a1.532,1.532,0,0,0-.765-1.324l-8.471-4.891a1.533,1.533,0,0,0-1.529,0l-8.471,4.891a1.532,1.532,0,0,0-.764,1.324v9.781a1.533,1.533,0,0,0,.765,1.324l8.471,4.891a1.533,1.533,0,0,0,1.529,0l8.471-4.891a1.533,1.533,0,0,0,.765-1.324v-3.677a.545.545,0,1,0-1.089,0v3.677a.441.441,0,0,1-.22.381l-8.471,4.891a.442.442,0,0,1-.44,0l-8.471-4.891a.441.441,0,0,1-.22-.381V774.7a.441.441,0,0,1,.22-.381l8.471-4.891a.441.441,0,0,1,.44,0l8.471,4.891a.441.441,0,0,1,.22.381v3.563A.545.545,0,0,0,262.03,778.809Z" transform="translate(0)" fill="#999" stroke="#999" stroke-miterlimit="10" stroke-width="0.4"/>
      </g>
      <g id="그룹_756" data-name="그룹 756" transform="translate(-182.575 -537.282)">
        <path id="패스_2227-2" data-name="패스 2227" d="M308.885,802.17l3.114-1.8a.545.545,0,1,0-.545-.943l-3.114,1.8a.545.545,0,1,0,.545.943Z" transform="translate(-59.152 -28.065)" fill="#999" stroke="#999" stroke-miterlimit="10" stroke-width="0.4"/>
        <path id="패스_2228-2" data-name="패스 2228" d="M275.67,851.028a.544.544,0,0,0,.545-.545v-7.745l6.707-3.873a.545.545,0,1,0-.545-.943L275.67,841.8l-6.707-3.872a.545.545,0,0,0-.545.943l6.707,3.872v7.745A.545.545,0,0,0,275.67,851.028Z" transform="translate(-23.095 -62.832)" fill="#999" stroke="#999" stroke-miterlimit="10" stroke-width="0.4"/>
        <path id="패스_2229-2" data-name="패스 2229" d="M262.03,778.809a.545.545,0,0,0,.545-.545V774.7a1.532,1.532,0,0,0-.765-1.324l-8.471-4.891a1.533,1.533,0,0,0-1.529,0l-8.471,4.891a1.532,1.532,0,0,0-.764,1.324v9.781a1.533,1.533,0,0,0,.765,1.324l8.471,4.891a1.533,1.533,0,0,0,1.529,0l8.471-4.891a1.533,1.533,0,0,0,.765-1.324v-3.677a.545.545,0,1,0-1.089,0v3.677a.441.441,0,0,1-.22.381l-8.471,4.891a.442.442,0,0,1-.44,0l-8.471-4.891a.441.441,0,0,1-.22-.381V774.7a.441.441,0,0,1,.22-.381l8.471-4.891a.441.441,0,0,1,.44,0l8.471,4.891a.441.441,0,0,1,.22.381v3.563A.545.545,0,0,0,262.03,778.809Z" transform="translate(0)" fill="#999" stroke="#999" stroke-miterlimit="10" stroke-width="0.4"/>
      </g>
    </g>
    <rect id="사각형_371" data-name="사각형 371" width="60" height="60" transform="translate(49 204)" fill="none"/>
  </g>
</svg>
