<svg id="Stamp" xmlns="http://www.w3.org/2000/svg" width="36" height="36">
    <defs>
        <style>
            .cls-2{fill:#6288c9}
        </style>
    </defs>
    <g id="사각형_314" data-name="사각형 314" style="stroke:#628ac7;fill:none">
        <rect width="36" height="36" rx="18" style="stroke:none"/>
        <rect x=".5" y=".5" width="35" height="35" rx="17.5" style="fill:none"/>
    </g>
    <g id="그룹_526" data-name="그룹 526" transform="translate(7.875 6.75)">
        <g id="그룹_525" data-name="그룹 525">
            <path id="패스_1960" data-name="패스 1960" class="cls-2" d="M520.248 417.354a3.634 3.634 0 0 0-.729-.517 5.136 5.136 0 0 0-2.152-.567 78.983 78.983 0 0 1-.021-1.176.415.415 0 0 0-.02-.119v-.005a.428.428 0 0 0-.014-.159c-.377-1.336-2.429-2.438-5.489-2.946a.425.425 0 0 0-.139.838c2.577.428 4.436 1.311 4.786 2.263a1.45 1.45 0 0 1-.183.507 1.9 1.9 0 0 1-.138.166 11.41 11.41 0 0 0-4.554-1.547 2.707 2.707 0 0 0-.47-.761 2.163 2.163 0 0 1-.614-1.653 1.265 1.265 0 0 1 .534-.9.425.425 0 0 0-.481-.7 2.1 2.1 0 0 0-.9 1.493 2.991 2.991 0 0 0 .816 2.317c.02.023.038.046.056.069a21.58 21.58 0 0 0-1.246-.092 2.677 2.677 0 0 0-.586-1.242 1.908 1.908 0 0 1-.445-1.527 2.147 2.147 0 0 1 .79-1.451.425.425 0 0 0-.481-.7 3.008 3.008 0 0 0-1.151 2.043 2.762 2.762 0 0 0 .646 2.191 1.749 1.749 0 0 1 .35.661h-.205q-.552 0-1.089.025a2.762 2.762 0 0 0-.365-.533 2.162 2.162 0 0 1-.614-1.653 1.265 1.265 0 0 1 .534-.9.425.425 0 0 0-.481-.7 2.1 2.1 0 0 0-.9 1.493 2.991 2.991 0 0 0 .815 2.317l.033.04a12.95 12.95 0 0 0-5.816 1.671 1.733 1.733 0 0 1-.37-.654c.35-.885 2.05-1.731 4.388-2.173a.425.425 0 0 0-.157-.834c-2.856.54-4.707 1.583-5.078 2.861a1.495 1.495 0 0 1-.037.3c0 .531-.018 1.083-.032 1.618-.088 3.492-.179 7.1 1.979 10.007a7.624 7.624 0 0 0 1.18 1.258 9.168 9.168 0 0 0 5.8 2h.165a9.722 9.722 0 0 0 6.044-2 7.626 7.626 0 0 0 1.181-1.258 9.1 9.1 0 0 0 1.332-2.583c2.285-.1 3.79-.923 4.475-2.453a3.824 3.824 0 0 0-.947-4.335zm.181 3.984c-.523 1.169-1.657 1.805-3.452 1.935.09-.37.163-.745.221-1.125a.847.847 0 0 0 .129.011.839.839 0 0 0 .1-.006 2.39 2.39 0 0 0 2.084-1.243 1.916 1.916 0 0 0-.49-2.135 1.777 1.777 0 0 0-.35-.248 3.074 3.074 0 0 0-1.134-.315h-.132c0-.365-.012-.73-.021-1.094a4.289 4.289 0 0 1 1.731.466 2.777 2.777 0 0 1 .558.4 2.966 2.966 0 0 1 .757 3.354zm-12.422 7.8a8.3 8.3 0 0 1-5.248-1.8 6.788 6.788 0 0 1-1.049-1.117c-1.983-2.668-1.9-6.131-1.812-9.479 0-.093 0-.187.007-.282 1.438 1.261 4.564 2.088 8.308 2.088a17.227 17.227 0 0 0 6.966-1.247 6.132 6.132 0 0 0 1.11-.653c.081-.062.16-.124.232-.188v.063c0 .073 0 .146.005.218v.06l.011.446a21.735 21.735 0 0 1-.451 6.059q-.057.215-.123.425t-.145.425a8.138 8.138 0 0 1-1.1 2.065 6.777 6.777 0 0 1-1.049 1.117 8.87 8.87 0 0 1-5.509 1.8zm10.266-9.858a.921.921 0 0 1 .182.129 1.059 1.059 0 0 1 .285 1.158 1.433 1.433 0 0 1-1.131.7 3.623 3.623 0 0 1-.282.045l.162-2.251a1.792 1.792 0 0 1 .276.042 2.213 2.213 0 0 1 .509.172z" transform="translate(-499.014 -408.87)"/>
            <path id="패스_1961" data-name="패스 1961" class="cls-2" d="M528.9 511.151a.778.778 0 1 0 .779.778.778.778 0 0 0-.779-.778z" transform="translate(-524.598 -498.774)"/>
            <path id="패스_1962" data-name="패스 1962" class="cls-2" d="M611.838 511.929a.778.778 0 1 0-.779.779.779.779 0 0 0 .779-.779z" transform="translate(-596.817 -498.774)"/>
            <path id="패스_1963" data-name="패스 1963" class="cls-2" d="M562.284 522.119H559.2a.425.425 0 0 0-.425.425 1.968 1.968 0 0 0 3.936 0 .425.425 0 0 0-.427-.425zm-1.544 1.543a1.121 1.121 0 0 1-1.035-.694h2.071a1.121 1.121 0 0 1-1.036.694z" transform="translate(-551.541 -508.415)"/>
        </g>
    </g>
</svg>
