<svg xmlns="http://www.w3.org/2000/svg" width="60" height="59.26" viewBox="0 0 60 59.26">
  <g id="Ic_Store" transform="translate(-267 -391.889)">
    <path id="패스_2038" data-name="패스 2038" d="M286.6,417.808a.878.878,0,0,0-.878.879v2a.878.878,0,1,0,1.757,0v-2a.879.879,0,0,0-.879-.879Zm0,0" fill="#00276b"/>
    <path id="패스_2039" data-name="패스 2039" d="M307.4,421.565a.879.879,0,0,0,.878-.879v-2a.878.878,0,1,0-1.757,0v2a.879.879,0,0,0,.879.879Zm0,0" fill="#00276b"/>
    <path id="패스_2040" data-name="패스 2040" d="M300.32,419.964a.879.879,0,0,0-1.24.085,2.757,2.757,0,0,1-4.16,0A.879.879,0,1,0,293.6,421.2a4.515,4.515,0,0,0,6.81,0,.879.879,0,0,0-.085-1.24Zm0,0" fill="#00276b"/>
    <path id="패스_2041" data-name="패스 2041" d="M270.213,451.149h53.574A3.218,3.218,0,0,0,327,447.935v-2.6a4.546,4.546,0,0,0-3.66-4.452V413.062a7.786,7.786,0,0,0,2.265-5.494V397.475a5.593,5.593,0,0,0-5.586-5.586H273.981a5.593,5.593,0,0,0-5.586,5.586v10.093a7.786,7.786,0,0,0,2.265,5.494v27.822a4.546,4.546,0,0,0-3.66,4.452v2.6a3.218,3.218,0,0,0,3.213,3.214ZM303.974,440.8H290.026V430.061a3.469,3.469,0,0,1,3.466-3.465h7.016a3.469,3.469,0,0,1,3.466,3.465Zm-3.466-15.96h-7.016a5.23,5.23,0,0,0-5.224,5.223V440.8H272.417V414.4a7.821,7.821,0,0,0,10.72-3.234,7.814,7.814,0,0,0,13.863,0,7.811,7.811,0,0,0,13.863,0,7.817,7.817,0,0,0,10.72,3.234v26.4H305.732V430.061a5.23,5.23,0,0,0-5.224-5.223Zm18.876-11.43a6.059,6.059,0,0,1-7.577-4.961h11.976a6.067,6.067,0,0,1-4.4,4.961Zm-21.44-4.961h11.975c-1.04,7.011-10.976,6.737-11.975,0Zm-2.856,2.5a6.054,6.054,0,0,1-11.007-2.5h11.975a6.02,6.02,0,0,1-.968,2.5Zm-12.9-2.5a6.052,6.052,0,0,1-11.976,0Zm41.654-10.972v9.214h-12.1V393.647h8.277a3.833,3.833,0,0,1,3.828,3.828Zm-13.863,9.214H297.879V393.647h12.105Zm-13.863,0H284.016V393.647h12.105Zm-22.14-13.042h8.277v13.042h-12.1v-9.214a3.833,3.833,0,0,1,3.828-3.828Zm-5.223,51.689a2.784,2.784,0,0,1,2.781-2.781h50.922a2.784,2.784,0,0,1,2.781,2.781v2.6a1.457,1.457,0,0,1-1.455,1.456H270.213a1.457,1.457,0,0,1-1.455-1.456Zm0,0" fill="#00276b"/>
  </g>
</svg>
