<svg xmlns="http://www.w3.org/2000/svg" width="49.424" height="60" viewBox="0 0 49.424 60">
  <g id="Ic_Takeout" transform="translate(-272.446 -391.89)">
    <path id="패스_2029" data-name="패스 2029" d="M287.12,396.968a.879.879,0,0,0-.879.878v1.929a.879.879,0,1,0,1.758,0v-1.929a.879.879,0,0,0-.879-.878Zm0,0" fill="#00276b"/>
    <path id="패스_2030" data-name="패스 2030" d="M307.2,396.968a.879.879,0,0,0-.879.878v1.929a.879.879,0,1,0,1.758,0v-1.929a.879.879,0,0,0-.879-.878Zm0,0" fill="#00276b"/>
    <path id="패스_2031" data-name="패스 2031" d="M300.382,399.055a.877.877,0,0,0-1.239.085,2.628,2.628,0,0,1-3.969,0,.879.879,0,1,0-1.325,1.155,4.386,4.386,0,0,0,6.619,0,.88.88,0,0,0-.086-1.24Zm0,0" fill="#00276b"/>
    <path id="패스_2032" data-name="패스 2032" d="M278.556,437.395a6.791,6.791,0,0,0,3.153,4.881l.721,4.942a5.488,5.488,0,0,0,5.4,4.672h18.653a5.489,5.489,0,0,0,5.4-4.672l.721-4.942a6.8,6.8,0,0,0,3.153-4.881l2.984-22.823a3.914,3.914,0,0,0,3.125-3.829v-2.289a3.912,3.912,0,0,0-3.251-3.851l-2.41-7.389a7.7,7.7,0,0,0-7.336-5.324H285.444a7.7,7.7,0,0,0-7.337,5.324L275.7,404.6a3.912,3.912,0,0,0-3.252,3.851v2.289a3.914,3.914,0,0,0,3.126,3.829Zm1.223-39.636a5.944,5.944,0,0,1,5.665-4.111h23.429a5.946,5.946,0,0,1,5.665,4.111l2.214,6.788H277.565ZM274.2,410.743v-2.289a2.152,2.152,0,0,1,2.15-2.149h41.609a2.152,2.152,0,0,1,2.15,2.149v2.289a2.152,2.152,0,0,1-2.15,2.15H290.19a.879.879,0,0,0,0,1.758h26.772l-2.945,22.517a5.041,5.041,0,0,1-4.985,4.376h-3.224a.879.879,0,1,0,0,1.758h3.224a6.859,6.859,0,0,0,1.68-.213l-.565,3.876a3.722,3.722,0,0,1-3.662,3.167H287.832a3.723,3.723,0,0,1-3.663-3.167l-.565-3.876a6.885,6.885,0,0,0,1.681.213h17.008a.879.879,0,0,0,0-1.758H285.285a5.041,5.041,0,0,1-4.986-4.376l-2.944-22.517h9.32a.879.879,0,0,0,0-1.758H276.354a2.152,2.152,0,0,1-2.15-2.15Zm0,0" fill="#00276b"/>
    <path id="패스_2033" data-name="패스 2033" d="M289.644,434.886h0a7.72,7.72,0,0,0,5.554,2.177,11.663,11.663,0,0,0,8.086-3.564c4.144-4.144,4.765-10.262,1.388-13.641-3.648-3.647-9.809-2.444-13.64,1.388-4.143,4.143-4.765,10.261-1.388,13.639Zm12.4-2.629c-3.285,3.284-7.965,4.01-10.734,1.766,1.154-2.72,2.474-3.518,5.159-4.671,3.843-1.648,5.736-3.216,7.772-7.215,1.7,2.809.855,7.067-2.2,10.12Zm-9.767-9.767c3.606-3.606,8.223-3.777,10.708-1.787-1.9,4.044-3.623,5.495-7.277,7.063-2.676,1.148-4.329,2.172-5.656,4.8-1.661-2.809-.811-7.037,2.225-10.073Zm0,0" fill="#00276b"/>
  </g>
</svg>
