<svg xmlns="http://www.w3.org/2000/svg" width="24" height="24">
    <path data-name="패스 1964" d="M254.156 251.457a.547.547 0 0 1 .547.548v6.26a.547.547 0 0 1-1.094 0V252a.547.547 0 0 1 .547-.543zm1.915.523-.274 6.26a.548.548 0 0 0 .523.571h.024a.547.547 0 0 0 .546-.523l.274-6.26a.547.547 0 1 0-1.093-.047zm-4.4-.523a.547.547 0 0 0-.523.57l.274 6.26a.547.547 0 0 0 .546.523h.024a.546.546 0 0 0 .523-.57l-.274-6.26a.547.547 0 0 0-.57-.523zm8.938-1.641a.547.547 0 0 1-.547.547h-.562l-.474 6.14a.547.547 0 0 1-.545.5.371.371 0 0 1-.042 0 .546.546 0 0 1-.5-.587l.467-6.056h-8.486l.66 8.552a1.089 1.089 0 0 0 1.089.991h4.989a1.081 1.081 0 0 0 1.089-.979.547.547 0 1 1 1.09.1 2.17 2.17 0 0 1-2.186 1.976h-4.989a2.187 2.187 0 0 1-2.179-1.989V259l-.667-8.64h-.566a.547.547 0 0 1 0-1.094h3.309v-.629A1.642 1.642 0 0 1 253.2 247h1.913a1.642 1.642 0 0 1 1.641 1.64v.629h3.309a.547.547 0 0 1 .546.547zm-7.957-.547h3.008v-.629a.548.548 0 0 0-.548-.547H253.2a.548.548 0 0 0-.548.547z" transform="translate(-241.703 -242)" style="fill:#666"/>
    <path data-name="사각형 307" style="fill:none" d="M0 0h24v24H0z"/>
</svg>
