<svg xmlns="http://www.w3.org/2000/svg" width="22" height="22" viewBox="0 0 22 22">
  <g id="그룹_573" data-name="그룹 573" transform="translate(-245 -245)">
    <path id="패스_2002" data-name="패스 2002" d="M256.473,265.281h-8.865a.872.872,0,0,1-.687-.327.893.893,0,0,1-.182-.752,9.5,9.5,0,0,1,9.033-7.519c.076,0,.152,0,.228,0s.154,0,.23,0a9.383,9.383,0,0,1,5.284,1.77.859.859,0,1,0,1-1.4,11.112,11.112,0,0,0-3.015-1.537,5.843,5.843,0,1,0-7,0,11.175,11.175,0,0,0-7.448,8.327A2.61,2.61,0,0,0,247.608,267h8.865a.859.859,0,0,0,0-1.719Zm-4.6-14.437a4.125,4.125,0,1,1,4.335,4.12c-.07,0-.14,0-.21,0s-.138,0-.208,0A4.131,4.131,0,0,1,251.875,250.844Z" fill="#222"/>
    <path id="패스_2003" data-name="패스 2003" d="M264.563,263.348l2.186-2.186a.859.859,0,0,0-1.216-1.215l-2.185,2.185-2.185-2.185a.859.859,0,0,0-1.216,1.215l2.186,2.186-2.186,2.185a.859.859,0,1,0,1.216,1.215l2.185-2.185,2.185,2.185a.859.859,0,0,0,1.216-1.215Z" fill="#222"/>
  </g>
</svg>
